<?xml version="1.0" standalone="no"?>
<!DOCTYPE svg PUBLIC "-//W3C//DTD SVG 1.1//EN" "http://www.w3.org/Graphics/SVG/1.1/DTD/svg11.dtd" >
<svg xmlns="http://www.w3.org/2000/svg" xmlns:xlink="http://www.w3.org/1999/xlink" version="1.1">
<metadata></metadata>
<defs>
<font id="teachersregular" horiz-adv-x="1105" >
<font-face units-per-em="2048" ascent="1638" descent="-410" />
<missing-glyph horiz-adv-x="552" />
<glyph horiz-adv-x="0" />
<glyph horiz-adv-x="682" />
<glyph unicode="&#xd;" horiz-adv-x="681" />
<glyph unicode=" "  horiz-adv-x="552" />
<glyph unicode="&#x09;" horiz-adv-x="552" />
<glyph unicode="&#xa0;" horiz-adv-x="552" />
<glyph unicode="!" horiz-adv-x="526" d="M143 94q0 47 36 82t85 35q47 0 83 -34t36 -81q0 -49 -36 -82.5t-83 -33.5q-49 0 -85 33.5t-36 80.5zM172 1393h180l-39 -977h-102z" />
<glyph unicode="&#x22;" horiz-adv-x="751" d="M111 1393h176l-37 -516h-105zM444 1393h177l-35 -516h-105z" />
<glyph unicode="#" horiz-adv-x="1159" d="M49 420v119h230l45 350h-215v119h233l45 399l123 -14l-45 -385h315l47 399l123 -14l-45 -385h205v-119h-221l-43 -350h205v-123h-226l-47 -420l-123 14l45 406h-317l-49 -420l-125 14l47 410h-207zM403 539h318l41 350h-313z" />
<glyph unicode="$" horiz-adv-x="1208" d="M76 342h182q12 -70 54 -119t121 -75.5t202 -30.5q78 0 143.5 18.5t114.5 51t76.5 78.5t27.5 102q0 61 -33.5 105t-84 72.5t-101.5 46t-84 25.5l-112 29q-76 20 -158 46t-151.5 67t-112.5 107.5t-43 166.5q0 125 66.5 210t182 129t263.5 44q141 0 237.5 -43t152.5 -115.5 t75 -162.5h-164q-16 96 -100.5 140t-198.5 44q-102 0 -182 -23.5t-126.5 -70.5t-46.5 -123q0 -80 45.5 -130t115 -80t145.5 -50l112 -27q96 -23 180 -54.5t147.5 -76.5t99.5 -108.5t36 -149.5q0 -197 -142 -304.5t-392 -107.5q-154 0 -269.5 43t-186.5 126t-91 200z M567 -143v1679h148v-1679h-148z" />
<glyph unicode="%" horiz-adv-x="1476" d="M88 1120q0 57 18.5 109.5t53.5 93.5t85 64.5t111 23.5q66 0 116 -24.5t84 -65.5t52.5 -93t18.5 -108q0 -57 -18.5 -108t-54.5 -92t-86.5 -65t-111.5 -24q-63 0 -113 24t-85 65t-52.5 93t-17.5 107zM219 1143q0 -82 27.5 -140.5t109.5 -58.5q70 0 104 49t34 105 q0 45 -8.5 91t-37 77.5t-90.5 31.5q-45 0 -76.5 -21.5t-47 -56t-15.5 -77.5zM283 0l764 1393h151l-768 -1393h-147zM850 268q0 55 18.5 107.5t52 93.5t85 65.5t114.5 24.5q61 0 111.5 -23.5t85.5 -64.5t53.5 -93t18.5 -110q0 -55 -17.5 -107t-52.5 -93t-84 -64.5t-115 -23.5 q-61 0 -111.5 22.5t-86 63t-54 93t-18.5 109.5zM983 268q0 -80 33.5 -128t103.5 -48q68 0 102.5 48t34.5 108q0 49 -10 95t-38.5 74.5t-88.5 28.5q-51 0 -80.5 -23.5t-43 -64.5t-13.5 -90z" />
<glyph unicode="&#x26;" horiz-adv-x="1411" d="M133 379q0 102 49 188t150 160q29 20 58.5 42t60.5 44q-74 84 -111 160t-37 141q0 84 36 151.5t103.5 107.5t159.5 40q90 0 156.5 -38t103.5 -103.5t37 -147.5q0 -68 -40 -134t-120 -132q-20 -18 -40.5 -34.5t-41.5 -32.5l287 -367q16 16 33.5 36.5t46.5 57.5t78 103 l117 -78q-35 -47 -81 -104.5t-104 -125.5l240 -313l-189 -4l-151 199q-51 -51 -113.5 -101.5t-131 -84.5t-140.5 -34q-133 0 -226.5 55.5t-141.5 147.5t-48 201zM274 389q0 -68 34 -128t91 -99t129 -39q57 0 119 32.5t131 96.5q16 16 33.5 32.5t32.5 30.5l-305 392 q-57 -43 -99.5 -76t-64.5 -56q-51 -51 -76 -97t-25 -89zM436 1118q0 -45 22.5 -90t67.5 -92q12 -14 24.5 -26.5t22.5 -26.5q25 16 63 43.5t64 54.5q33 33 49.5 67.5t16.5 73.5q0 74 -49 118t-115 48q-35 2 -74 -13t-65.5 -52t-26.5 -105z" />
<glyph unicode="'" horiz-adv-x="354" d="M90 1393h176l-37 -516h-104z" />
<glyph unicode="(" horiz-adv-x="630" d="M117 539q0 170 27.5 350t82 348t133.5 299h140q-86 -145 -140.5 -317t-80 -348.5t-25.5 -333.5q0 -162 25.5 -336t79 -343t139.5 -317h-136q-55 80 -100 198t-77.5 256t-50 279.5t-17.5 264.5z" />
<glyph unicode=")" horiz-adv-x="630" d="M131 1536h139q115 -242 166 -440.5t64.5 -341t13.5 -213.5q0 -119 -17.5 -259.5t-50 -279.5t-77.5 -260t-101 -201h-135q86 147 140.5 318.5t79 346.5t24.5 331q0 164 -26.5 340t-81 347t-138.5 312z" />
<glyph unicode="*" horiz-adv-x="1085" d="M158 1192l53 168l295 -156l-51 332h176l-51 -332l294 156l56 -168l-328 -57l234 -228l-144 -104l-149 289l-150 -289l-143 104l233 228z" />
<glyph unicode="+" horiz-adv-x="942" d="M98 373v141h301v303h144v-303h303v-141h-303v-303h-144v303h-301z" />
<glyph unicode="," horiz-adv-x="475" d="M80 113q0 33 16.5 59.5t43 41.5t59.5 15q63 0 96 -43t33 -120q0 -57 -26 -111.5t-68 -100.5t-91 -83l-59 77q31 23 70 65t49 85h-10q-43 0 -78 31.5t-35 83.5z" />
<glyph unicode="-" horiz-adv-x="839" d="M78 397v119h686v-119h-686z" />
<glyph unicode="." horiz-adv-x="546" d="M154 94q0 49 34.5 83t83.5 34q51 0 86 -33t35 -82t-37 -82.5t-84 -33.5q-45 0 -81.5 34.5t-36.5 79.5z" />
<glyph unicode="/" horiz-adv-x="1101" d="M88 -412l795 1948h153l-794 -1948h-154z" />
<glyph unicode="0" horiz-adv-x="1146" d="M102 698q0 100 15.5 203t49.5 195t88 163.5t133 113.5t185 42t185.5 -42t133.5 -113.5t88 -163.5t49 -194.5t15 -203.5q0 -125 -24.5 -252t-78.5 -232t-144.5 -168.5t-223.5 -63.5q-131 0 -222 63.5t-145 168.5t-79 232t-25 252zM246 727q0 -63 6 -143t25.5 -160 t54.5 -147.5t93 -108.5t142 -41q86 0 148.5 54.5t104.5 139.5t61.5 184t19.5 187q0 100 -19.5 201.5t-59.5 187.5t-103.5 138.5t-149.5 52.5t-147.5 -50.5t-100 -131t-57 -176t-18.5 -187.5z" />
<glyph unicode="1" horiz-adv-x="587" d="M102 1247v125l344 37v-1409h-143v1247h-201z" />
<glyph unicode="2" horiz-adv-x="1259" d="M129 0l721 727q31 31 51.5 66.5t30.5 75.5t10 83q0 88 -43 159t-116.5 114t-164.5 43q-94 0 -169.5 -49.5t-116.5 -126t-33 -162.5h-145q-6 139 58 248.5t174 173t239 63.5q125 0 232.5 -60.5t173 -165t65.5 -239.5q0 -63 -15.5 -120.5t-45 -108.5t-74.5 -96l-486 -482 h635v-143h-981z" />
<glyph unicode="3" horiz-adv-x="1089" d="M102 268l150 41q41 -88 116.5 -137t151.5 -49q133 0 222 76.5t89 208.5q0 127 -84.5 193.5t-220.5 66.5h-98v149h98q125 0 204 57.5t79 167.5q0 115 -83 176.5t-206 61.5q-70 0 -139.5 -37t-108.5 -115l-151 37q37 92 100.5 147.5t143 80t161.5 24.5q111 0 208 -44 t157.5 -127t60.5 -202q0 -98 -42 -171.5t-119 -120.5q92 -51 144 -138.5t52 -207.5q0 -133 -65.5 -229.5t-171 -146.5t-224.5 -50q-68 0 -130 16t-118.5 50t-100.5 89t-75 133z" />
<glyph unicode="4" horiz-adv-x="1157" d="M123 537l143 856h146l-144 -777l-63 64h850v-143h-932zM702 0v1393h146v-1393h-146z" />
<glyph unicode="5" horiz-adv-x="1126" d="M137 207l125 74q45 -76 121 -118t145 -42q113 0 189 47t114.5 120.5t38.5 151.5q0 86 -42 160t-111.5 119t-155.5 45q-63 0 -115.5 -16.5t-97.5 -49.5l-155 70l159 625h613v-144h-504l-94 -372q53 16 101 24t93 8q82 0 163 -31.5t147.5 -91t106.5 -144.5t40 -191 q0 -131 -62.5 -239t-170 -172.5t-240.5 -64.5q-125 0 -234.5 62.5t-173.5 169.5z" />
<glyph unicode="6" horiz-adv-x="1081" d="M72 442q0 84 26.5 157t77.5 136l545 658h188l-426 -512l41 26q143 -6 253 -65.5t171.5 -160.5t61.5 -235q0 -133 -62.5 -239.5t-169 -168t-237.5 -61.5q-129 0 -235.5 61.5t-170 167t-63.5 236.5zM217 442q0 -90 45 -162.5t120 -115.5t161 -43q92 0 164.5 43t114.5 114.5 t42 157.5q0 90 -43 163t-114.5 117t-161.5 44q-82 0 -158 -40t-123 -111.5t-47 -166.5z" />
<glyph unicode="7" horiz-adv-x="997" d="M61 1243v143h875l-612 -1386h-156l575 1303l37 -60h-719z" />
<glyph unicode="8" horiz-adv-x="1077" d="M82 397q0 109 63.5 205t169.5 154q-82 70 -123.5 143.5t-41.5 155.5t29.5 148.5t82.5 113.5t124 72.5t153 25.5q84 0 154.5 -25.5t122.5 -73.5t82 -114.5t30 -148.5q0 -80 -41 -154t-125 -143q109 -57 171 -153.5t62 -201.5q0 -96 -34.5 -173.5t-97 -133t-145.5 -85 t-179 -29.5q-94 0 -177 28.5t-145.5 83.5t-98.5 132t-36 173zM229 414q0 -78 41 -145.5t111 -109.5t158 -42t157.5 42t110.5 109.5t41 145.5q0 82 -43 146.5t-113.5 101t-152.5 36.5t-153 -36.5t-114 -101t-43 -146.5zM297 1047q0 -94 69 -163t173 -69t172.5 68.5 t68.5 163.5q0 100 -70.5 164.5t-170.5 64.5t-171 -64.5t-71 -164.5z" />
<glyph unicode="9" horiz-adv-x="1081" d="M72 946q0 133 62.5 239.5t169 168t237.5 61.5q129 0 235.5 -61.5t170 -167t63.5 -236.5q0 -84 -26 -156.5t-79 -136.5l-545 -657h-188l426 512l-41 -27q-143 6 -252.5 65.5t-171 162t-61.5 233.5zM217 956q0 -88 43 -161.5t116 -117.5t163 -44q86 0 160.5 43t119.5 114.5 t45 159.5q0 90 -45 163t-118.5 116t-161.5 43q-92 0 -165 -43t-115 -115t-42 -158z" />
<glyph unicode=":" horiz-adv-x="546" d="M154 94q0 49 34.5 83t83.5 34q51 0 86 -33t35 -82t-37 -82.5t-84 -33.5q-45 0 -81.5 34.5t-36.5 79.5zM154 805q0 49 34.5 83t83.5 34q51 0 86 -33t35 -82t-37 -83t-84 -34q-45 0 -81.5 35t-36.5 80z" />
<glyph unicode=";" horiz-adv-x="546" d="M154 805q0 49 34.5 83t83.5 34q51 0 86 -33t35 -82t-37 -83t-84 -34q-45 0 -81.5 35t-36.5 80zM158 113q0 33 16 59.5t43 41.5t59 15q63 0 96.5 -43t33.5 -120q0 -57 -26 -111.5t-68 -100.5t-91 -83l-59 77q31 23 69.5 65t49.5 85h-5q-47 0 -82.5 31.5t-35.5 83.5z" />
<glyph unicode="&#x3c;" horiz-adv-x="1056" d="M92 397v146l873 432v-152l-783 -379v54l783 -379v-154z" />
<glyph unicode="=" horiz-adv-x="942" d="M137 197v141h666v-141h-666zM137 567v142h666v-142h-666z" />
<glyph unicode="&#x3e;" horiz-adv-x="1056" d="M92 -37v152l782 379v-54l-782 379v154l873 -432v-146z" />
<glyph unicode="?" horiz-adv-x="1017" d="M102 1081q16 160 128 246t274 86q106 0 196.5 -39t144.5 -114.5t54 -184.5q0 -76 -49 -135t-96 -94q-20 -14 -51 -36t-48 -36q-43 -35 -61.5 -70.5t-18.5 -74.5v-213h-143v215q0 76 32 137t107 119q47 35 80 57.5t51 36.5q23 16 38.5 43t15.5 51q0 74 -39 117t-96.5 62.5 t-114.5 19.5t-114.5 -20.5t-97.5 -62.5t-46 -110h-146zM387 94q0 47 36 82t85 35q47 0 83 -34t36 -81q0 -49 -36 -82.5t-83 -33.5q-49 0 -85 33.5t-36 80.5z" />
<glyph unicode="@" horiz-adv-x="1474" d="M102 522q0 162 58.5 281t156 197.5t214 117.5t233.5 39q111 0 219.5 -42t196.5 -119.5t140 -187.5t52 -243q0 -94 -24.5 -179t-69.5 -151.5t-106.5 -104.5t-135.5 -38q-70 0 -123 40t-77 99q-49 -47 -110.5 -76.5t-109.5 -29.5q-78 0 -134 42t-86.5 115.5t-30.5 168.5 q0 76 23.5 152.5t68.5 140t108.5 102.5t143.5 39q72 0 122 -42t82 -100q6 18 11.5 40t11.5 38l129 -16l-31 -96q-16 -49 -35.5 -115t-35 -133.5t-16.5 -124.5t21.5 -93t80.5 -36q53 0 101 46t77.5 127t29.5 183q0 111 -41.5 201t-113.5 153.5t-159 98.5t-179 35 q-98 0 -194.5 -32t-177.5 -97.5t-129 -165t-48 -232.5q0 -162 71.5 -295t196.5 -211.5t281 -78.5q39 0 83 9t93 27l25 -100q-53 -20 -101.5 -30.5t-99.5 -10.5q-141 0 -262 52.5t-211 145.5t-139.5 218t-49.5 272zM496 436q0 -104 41 -147t88 -43q37 0 99 32.5t97 92.5 q0 29 16.5 90t30.5 112q-18 102 -65 151.5t-94 49.5q-51 0 -100.5 -50t-81 -128t-31.5 -160z" />
<glyph unicode="A" horiz-adv-x="1263" d="M20 0l574 1393h78l571 -1393h-156l-149 379h-612l-150 -379h-156zM379 512h506l-252 641z" />
<glyph unicode="B" horiz-adv-x="1103" d="M154 0v1393h376q133 0 229.5 -40t149 -113t52.5 -173q0 -92 -37 -175t-127 -124q88 -23 146 -78t89 -132t31 -169q0 -117 -61.5 -204t-170 -136t-251.5 -49h-426zM297 137h324q133 0 216 77t83 202q0 76 -38 134t-100.5 93t-138.5 35h-346v-541zM297 821h274 q104 0 175 52.5t71 170.5q0 106 -71.5 158.5t-215.5 52.5h-233v-434z" />
<glyph unicode="C" horiz-adv-x="1513" d="M92 694q0 143 51.5 272.5t145.5 229.5t221 157.5t276 57.5q145 0 272.5 -55.5t223.5 -154.5t148 -232h-158q-82 152 -215 223.5t-291 71.5q-86 0 -178 -38t-173 -112t-130 -179.5t-49 -240.5q0 -117 43 -220t118.5 -181t175 -122t213.5 -44q160 0 289 84t199 215h158 q-51 -133 -148.5 -233.5t-226 -156.5t-271.5 -56q-145 0 -271 56t-221 155.5t-148.5 228.5t-53.5 274z" />
<glyph unicode="D" horiz-adv-x="1327" d="M154 0v1393h364q143 0 272.5 -49.5t229.5 -140.5t157.5 -219t57.5 -288q0 -150 -55.5 -277.5t-152.5 -221t-227 -145.5t-282 -52h-364zM297 143h225q162 0 291 72t206 197t77 284q0 162 -77 286t-206 195.5t-291 71.5h-225v-1106z" />
<glyph unicode="E" horiz-adv-x="1134" d="M154 0v1393h827v-133h-684v-496h664v-135h-664v-496h684v-133h-827z" />
<glyph unicode="F" horiz-adv-x="1021" d="M154 0v1393h827v-133h-684v-496h664v-135h-664v-629h-143z" />
<glyph unicode="G" horiz-adv-x="1619" d="M92 702q0 141 54.5 270.5t149.5 230t223 158.5t276 58q170 0 311 -64.5t243.5 -180t147.5 -269.5h-151q-66 170 -210.5 270.5t-326.5 100.5q-119 0 -223.5 -44t-183 -123t-122.5 -182.5t-44 -224.5q0 -119 44 -222t121.5 -183t182 -125t225.5 -45q127 0 239.5 49 t195.5 139.5t124 210.5h-565v125h725l-15 -86q-23 -131 -88 -237.5t-162.5 -183t-213 -118.5t-240.5 -42q-147 0 -276.5 55t-228.5 153.5t-155.5 229.5t-56.5 280z" />
<glyph unicode="H" horiz-adv-x="1226" d="M154 0v1393h143v-627h633v627h143v-1393h-143v623h-633v-623h-143z" />
<glyph unicode="I" horiz-adv-x="450" d="M154 0v1393h143v-1393h-143z" />
<glyph unicode="J" horiz-adv-x="780" d="M61 125l84 119q18 -23 49 -51.5t66 -48t66 -19.5q45 0 79.5 13.5t59 41t37 69.5t12.5 99v1045h143v-1045q0 -125 -46 -206t-121.5 -119.5t-165.5 -38.5q-39 0 -77 12t-71 31.5t-61.5 45t-53.5 52.5z" />
<glyph unicode="K" horiz-adv-x="970" d="M154 0v1393h143v-654l469 654h184l-512 -697l512 -696h-184l-469 653v-653h-143z" />
<glyph unicode="L" horiz-adv-x="958" d="M154 0v1393h143v-1250h580v-143h-723z" />
<glyph unicode="M" horiz-adv-x="1603" d="M20 0l306 1397h55l422 -1104l422 1104h53l305 -1397h-145l-217 991l-383 -983h-70l-385 983l-215 -991h-148z" />
<glyph unicode="N" horiz-adv-x="1232" d="M154 0v1393h61l721 -1024v1024h143v-1391h-61l-721 1024v-1026h-143z" />
<glyph unicode="O" horiz-adv-x="1615" d="M92 700q0 147 55.5 276.5t154.5 229t228 154.5t277 55q150 0 280 -55t228 -153.5t153.5 -227.5t55.5 -279q0 -154 -57.5 -283.5t-158 -227t-229.5 -151.5t-272 -54q-147 0 -276.5 56t-227.5 155.5t-154.5 228.5t-56.5 276zM236 700q0 -119 44 -223t122.5 -183t182 -123 t222.5 -44q121 0 224.5 44t182 123t122.5 183.5t44 222.5q0 119 -44 222.5t-122.5 182.5t-183 123t-223.5 44t-222.5 -44t-182 -123t-122.5 -182.5t-44 -222.5z" />
<glyph unicode="P" horiz-adv-x="1083" d="M154 0v1393h446q121 0 221.5 -52.5t160.5 -146.5t60 -221q0 -123 -59 -218.5t-158.5 -149.5t-224.5 -54h-303v-551h-143zM297 686h324q82 0 144 39t98 105.5t36 146.5q0 84 -34 146.5t-96 98t-148 35.5h-324v-571z" />
<glyph unicode="Q" horiz-adv-x="1605" d="M92 700q0 147 55.5 276.5t154.5 229t228 154.5t277 55q150 0 280 -55t228 -153.5t153.5 -227.5t55.5 -279q0 -154 -57.5 -283.5t-158 -227t-229.5 -151.5t-272 -54q-147 0 -276.5 56t-227.5 155.5t-154.5 228.5t-56.5 276zM236 700q0 -119 44 -223t122.5 -183t182 -123 t222.5 -44q121 0 224.5 44t182 123t122.5 183.5t44 222.5q0 119 -44 222.5t-122.5 182.5t-183 123t-223.5 44t-222.5 -44t-182 -123t-122.5 -182.5t-44 -222.5zM797 543h194l520 -549h-190z" />
<glyph unicode="R" horiz-adv-x="1114" d="M154 0v1393h446q125 0 225.5 -54.5t158.5 -149.5t58 -216q0 -119 -55 -211t-146 -146.5t-204 -62.5l428 -553h-193l-407 551h-168v-551h-143zM297 688h324q86 0 148 40t96 105.5t34 143.5q0 80 -34 142.5t-95 99t-149 36.5h-324v-567z" />
<glyph unicode="S" horiz-adv-x="1175" d="M76 326h170q14 -74 58 -123t121 -74t187 -25q98 0 180 26t132.5 85t50.5 158q0 68 -44 116t-112.5 79.5t-142.5 53t-135 35.5q-106 25 -186.5 60t-133.5 81t-79.5 101t-26.5 123q0 98 35.5 172t99 123t147.5 72.5t178 23.5q102 0 182.5 -18.5t140.5 -56.5t100 -95 t59 -133h-156q-20 90 -101 135t-225 45q-86 0 -157.5 -24.5t-113.5 -75.5t-42 -131q0 -72 41 -121t104.5 -80t136 -51.5t136.5 -36.5q90 -23 170 -52.5t141.5 -72.5t96 -106.5t34.5 -155.5q0 -109 -42 -186.5t-114.5 -127t-164 -73t-189.5 -23.5q-117 0 -208 21.5 t-157.5 65.5t-109.5 111t-61 155z" />
<glyph unicode="T" horiz-adv-x="1064" d="M41 1262v135h983v-135h-420v-1258h-143v1258h-420z" />
<glyph unicode="U" horiz-adv-x="1284" d="M123 461v932h143v-953q0 -106 49.5 -176.5t135.5 -104.5t192 -34q113 0 197 36t131 106.5t47 172.5v953h143v-932q0 -152 -65.5 -259.5t-181 -163.5t-271.5 -56t-272.5 56t-182 163.5t-65.5 259.5z" />
<glyph unicode="V" horiz-adv-x="1304" d="M20 1393h156l502 -1182h-49l499 1182h156l-592 -1387h-78z" />
<glyph unicode="W" horiz-adv-x="1665" d="M51 1393h148l229 -1076l-37 5l410 1064h65l408 -1064l-37 -5l231 1076h146l-299 -1393h-70l-434 1159h45l-434 -1159h-70z" />
<glyph unicode="X" horiz-adv-x="1241" d="M41 1393h178l402 -594l401 594h176l-489 -697l489 -696h-176l-401 594l-402 -594h-176l489 694z" />
<glyph unicode="Y" horiz-adv-x="1239" d="M20 1393h185l416 -596l415 596h183l-527 -738v-655h-143v655z" />
<glyph unicode="Z" horiz-adv-x="1187" d="M51 0l826 1260h-783v133h1043l-826 -1260h791v-133h-1051z" />
<glyph unicode="[" horiz-adv-x="720" d="M201 -436v1972h370v-100h-235v-1770h235v-102h-370z" />
<glyph unicode="\" horiz-adv-x="1101" d="M88 1536h154l794 -1948h-151z" />
<glyph unicode="]" horiz-adv-x="720" d="M150 -334h235v1770h-235v100h370v-1972h-370v102z" />
<glyph unicode="^" horiz-adv-x="1198" d="M121 702l373 689h211l374 -689h-157l-322 596l-321 -596h-158z" />
<glyph unicode="_" horiz-adv-x="1064" d="M-20 -180h1105v-119h-1105v119z" />
<glyph unicode="`" horiz-adv-x="483" d="M0 1829h156l184 -293h-115z" />
<glyph unicode="a" horiz-adv-x="1157" d="M92 451q0 125 56.5 231t155.5 173t226 67q111 0 196 -48.5t144 -125.5v153h144v-901h-144v154q-39 -51 -90 -91t-113.5 -61.5t-136.5 -21.5q-127 0 -226 66.5t-155.5 174t-56.5 230.5zM236 451q0 -86 40.5 -161t112.5 -121t164 -46t163.5 46t112.5 121t41 161 q0 88 -41 161.5t-112.5 119.5t-163.5 46t-164 -46t-112.5 -119.5t-40.5 -161.5z" />
<glyph unicode="b" horiz-adv-x="1146" d="M143 0v1536h144v-788q59 78 144 126t196 48q127 0 226 -67t155.5 -173.5t56.5 -230.5q0 -123 -56.5 -230.5t-155.5 -174t-226 -66.5q-74 0 -136.5 21.5t-112.5 61t-91 91.5v-154h-144zM287 451q0 -86 41 -161t112.5 -121t163.5 -46t164 46t113 121t41 161q0 88 -41 161.5 t-113 119.5t-164 46t-163.5 -46t-112.5 -119.5t-41 -161.5z" />
<glyph unicode="c" horiz-adv-x="1067" d="M82 451q0 129 61.5 235.5t166 170t233.5 63.5q100 0 189 -41t156.5 -118t96.5 -183h-156q-37 88 -114.5 140t-157.5 52q-88 0 -163 -40t-120 -111.5t-45 -167.5q0 -86 41 -160t113 -118t160 -44q86 0 158.5 45t113.5 121h162q-35 -100 -102.5 -171t-156 -107.5 t-188.5 -36.5q-82 0 -161.5 34.5t-144 97t-103.5 148.5t-39 191z" />
<glyph unicode="d" horiz-adv-x="1146" d="M82 451q0 125 56.5 231t155.5 173t226 67q111 0 199 -45.5t141 -128.5v788h144v-1536h-144v154q-39 -51 -90 -91t-113.5 -61.5t-136.5 -21.5q-127 0 -226 66.5t-155.5 174t-56.5 230.5zM225 451q0 -86 41 -161t113 -121t164 -46t163.5 46t112.5 121t41 161 q0 88 -41 161.5t-112.5 119.5t-163.5 46t-164 -46t-113 -119.5t-41 -161.5z" />
<glyph unicode="e" d="M82 455q0 131 63.5 237.5t170 170t237.5 63.5q127 0 233.5 -63.5t172 -168t65.5 -231.5v-57h-852v133h700q-25 102 -113.5 172.5t-205.5 70.5q-96 0 -169 -45t-114 -121.5t-41 -173.5q0 -94 47.5 -164.5t121 -109.5t155.5 -39q63 0 117.5 14.5t100.5 43t83 73.5l109 -90 q-45 -57 -110 -99t-136.5 -63.5t-141.5 -21.5q-135 0 -246.5 58t-179 163.5t-67.5 247.5z" />
<glyph unicode="f" horiz-adv-x="667" d="M41 768v133h203v363q0 96 29.5 155.5t92 88t158.5 28.5h62v-133h-82q-59 0 -88 -26.5t-29 -86.5v-389h219v-133h-219v-768h-143v768h-203z" />
<glyph unicode="g" horiz-adv-x="1157" d="M92 451q0 125 56.5 232.5t157 173t226.5 65.5q84 0 151 -28t114 -68t73 -76v151h144v-946q0 -129 -61.5 -234.5t-166 -169t-233.5 -63.5q-86 0 -158.5 30.5t-129 84t-91.5 121t-47 143.5h143q25 -106 107 -171t176 -65q90 0 161.5 44t113.5 118t42 162v197 q-29 -41 -77 -81t-112.5 -65.5t-148.5 -25.5q-127 0 -227 65.5t-156.5 173t-56.5 232.5zM236 451q0 -88 41.5 -163t114.5 -120t161 -45q92 0 163.5 46t112.5 121t41 161q0 88 -41 161.5t-112.5 119.5t-163.5 46q-88 0 -161 -45t-114.5 -118.5t-41.5 -163.5z" />
<glyph unicode="h" horiz-adv-x="1032" d="M143 0v1536h144v-791q43 74 113.5 124.5t170.5 50.5q113 0 188 -44.5t112.5 -124t37.5 -188.5v-563h-143v563q0 53 -15.5 102.5t-53.5 80t-103 30.5q-111 0 -178.5 -47t-98 -136t-30.5 -216v-377h-144z" />
<glyph unicode="i" horiz-adv-x="468" d="M143 1149q0 37 27 63.5t66 26.5q37 0 63.5 -26.5t26.5 -63.5q0 -39 -26.5 -65.5t-63.5 -26.5q-39 0 -66 26.5t-27 65.5zM164 0v901h143v-901h-143z" />
<glyph unicode="j" horiz-adv-x="481" d="M6 -358q78 0 123 51t45 133v1075h143v-1073q0 -86 -36.5 -161t-101 -120t-148.5 -45h-23q0 1 -2 140zM158 1149q0 37 26.5 63.5t65.5 26.5q37 0 63.5 -26.5t26.5 -63.5q0 -39 -26.5 -65.5t-63.5 -26.5q-39 0 -65.5 26.5t-26.5 65.5z" />
<glyph unicode="k" horiz-adv-x="851" d="M143 0v1536h144v-1038l329 405h191l-371 -438l395 -465h-190l-354 432v-432h-144z" />
<glyph unicode="l" horiz-adv-x="450" d="M154 0v1536h143v-1536h-143z" />
<glyph unicode="m" horiz-adv-x="1552" d="M143 4v901h144v-143q41 70 106.5 117t159.5 47q102 0 174 -42t111 -130q41 74 108.5 123t161.5 49q104 0 176 -43t109 -123t37 -193v-563h-144v563q0 63 -18.5 111.5t-58.5 76t-105 27.5q-55 0 -107.5 -29.5t-87.5 -77.5t-35 -108v-563h-143v563q0 63 -18.5 111.5 t-58.5 76t-105 27.5q-76 0 -132.5 -45t-89 -116.5t-40.5 -155.5v-461h-144z" />
<glyph unicode="n" horiz-adv-x="1032" d="M143 0v901h144v-156q43 74 116.5 124.5t174.5 50.5q106 0 179.5 -42t112.5 -121t39 -194v-563h-143v563q0 53 -15.5 102.5t-53.5 80t-103 30.5q-111 0 -178.5 -53t-98 -144.5t-30.5 -201.5v-377h-144z" />
<glyph unicode="o" d="M82 455q0 131 63.5 237.5t170 170t237.5 63.5t237.5 -63.5t170 -170t63.5 -237.5t-63.5 -237.5t-171 -169t-236.5 -62.5t-236.5 62.5t-171 169t-63.5 237.5zM225 455q0 -90 44 -164t119 -118t165 -44t165 44t119 118t44 164q0 92 -44 165.5t-118 117.5t-166 44 q-90 0 -165 -44t-119 -117.5t-44 -165.5z" />
<glyph unicode="p" horiz-adv-x="1146" d="M143 -512v1413h144v-153q59 78 144 126t196 48q127 0 226 -67t155.5 -173.5t56.5 -230.5q0 -123 -56.5 -230.5t-155.5 -174t-226 -66.5q-74 0 -136.5 21.5t-112.5 61t-91 91.5v-666h-144zM287 451q0 -86 41 -161t112.5 -121t163.5 -46t164 46t113 121t41 161 q0 88 -41 161.5t-113 119.5t-164 46t-163.5 -46t-112.5 -119.5t-41 -161.5z" />
<glyph unicode="q" horiz-adv-x="1136" d="M82 451q0 125 56.5 231t155.5 173t226 67q111 0 196 -48.5t144 -125.5v153h144v-1413h-144v666q-39 -51 -90 -91t-113.5 -61.5t-136.5 -21.5q-127 0 -226 66.5t-155.5 174t-56.5 230.5zM225 451q0 -86 41 -161t113 -121t164 -46t163.5 46t112.5 121t41 161 q0 88 -41 161.5t-112.5 119.5t-163.5 46t-164 -46t-113 -119.5t-41 -161.5z" />
<glyph unicode="r" horiz-adv-x="667" d="M143 0v901h144v-176q27 76 60.5 118t76.5 59.5t92 17.5q23 0 46.5 -4.5t43.5 -14.5v-186q-25 23 -51.5 34t-54.5 11q-66 0 -114 -46t-73.5 -117t-25.5 -146v-451h-144z" />
<glyph unicode="s" horiz-adv-x="823" d="M55 252h152q16 -59 47 -95t74 -50.5t96 -14.5q98 0 147.5 37t49.5 111q0 43 -35 75.5t-107 55.5q-31 10 -77 22.5t-93 26.5t-86 31q-63 31 -101 80t-38 118q0 92 45 152.5t117.5 90.5t156.5 30q127 0 215.5 -52.5t118.5 -191.5h-153q-14 47 -39 74.5t-60.5 39t-85.5 11.5 q-61 0 -112 -26.5t-51 -92.5t45 -93.5t94 -43.5q25 -6 71 -17.5t97 -27t90 -33.5q70 -33 104.5 -86t34.5 -125q0 -100 -48 -162.5t-129 -92.5t-179 -30q-104 0 -179 31t-120 93.5t-62 154.5z" />
<glyph unicode="t" horiz-adv-x="694" d="M51 768v133h225v350h144v-350h223v-133h-223v-768h-144v768h-225z" />
<glyph unicode="u" horiz-adv-x="1032" d="M143 338v563h144v-563q0 -53 15 -102.5t53 -80t104 -30.5q121 0 187.5 53t93 144.5t26.5 201.5v377h143v-901h-143v154q-51 -86 -126 -129t-175 -43q-106 0 -178 48t-108 128t-36 180z" />
<glyph unicode="v" horiz-adv-x="870" d="M20 901h156l260 -670l258 670h156l-379 -903h-70z" />
<glyph unicode="w" horiz-adv-x="1482" d="M20 901h160l271 -694l254 649h73l254 -649l271 694h159l-379 -899h-96l-246 610l-241 -610h-97z" />
<glyph unicode="x" horiz-adv-x="917" d="M51 0l316 453l-316 448h182l226 -346l225 346h182l-315 -450l315 -451h-182l-225 350l-226 -350h-182z" />
<glyph unicode="y" horiz-adv-x="911" d="M20 901h164l289 -604l258 604h160l-623 -1413h-174l303 659z" />
<glyph unicode="z" horiz-adv-x="931" d="M31 0l549 768h-514v133h788l-549 -768h576v-133h-850z" />
<glyph unicode="{" horiz-adv-x="778" d="M164 389v139q66 25 98.5 74t32.5 125v541q0 68 15.5 129t61.5 100t138 39l104 -2v-102q-57 12 -96 7t-58.5 -26.5t-19.5 -58.5v-641q0 -96 -46 -156.5t-128 -105.5q66 -31 120 -78t54 -135v-461q0 -74 19.5 -120t58.5 -62.5t96 -4.5v-100l-127 -2q-47 0 -82.5 18.5 t-60.5 55.5t-37 89t-12 120v462q0 59 -41 97.5t-90 58.5z" />
<glyph unicode="|" horiz-adv-x="593" d="M242 -461v1946h112v-1946h-112z" />
<glyph unicode="}" horiz-adv-x="778" d="M164 -410q59 -12 97 4.5t57.5 62.5t19.5 120v461q0 59 25.5 98t65.5 66.5t83 48.5q-82 45 -128 105t-46 157v641q0 37 -19.5 58.5t-57.5 26.5t-97 -7v102l104 2q94 0 139.5 -39t60.5 -100.5t15 -128.5v-541q0 -76 33 -125t98 -74v-139q-49 -20 -90 -58t-41 -98v-462 q0 -74 -20.5 -138.5t-76.5 -104.5t-167 -40l-55 2v100z" />
<glyph unicode="~" horiz-adv-x="1077" d="M156 1370q14 29 38.5 60.5t54.5 61.5t61.5 48.5t58.5 18.5q59 0 113.5 -24t105.5 -46.5t100 -22.5q20 0 42 12.5t42.5 38t40.5 62.5l109 -68q-18 -29 -45 -59.5t-59 -58t-64.5 -44t-67.5 -16.5q-49 0 -97 22.5t-97.5 45t-106.5 22.5q-20 0 -40.5 -13t-41.5 -41t-41 -69z " />
<glyph unicode="&#xa1;" horiz-adv-x="526" d="M147 799q0 49 36 82.5t83 33.5q49 0 85 -33.5t36 -80.5t-36 -82t-85 -35q-47 0 -83 34t-36 81zM178 -498l39 977h102l39 -977h-180z" />
<glyph unicode="&#xa2;" horiz-adv-x="1067" d="M82 715q0 129 61.5 235.5t166 170t233.5 63.5q100 0 189 -41t156.5 -118t96.5 -183h-156q-37 88 -114.5 140t-157.5 52q-88 0 -163 -40t-120 -111.5t-45 -167.5q0 -86 41 -160t113 -118t160 -44q86 0 158.5 45t113.5 121h162q-35 -100 -102.5 -171t-156 -107.5 t-188.5 -36.5q-82 0 -161.5 34.5t-144 97t-103.5 148.5t-39 191zM293 0l336 1393h153l-336 -1393h-153z" />
<glyph unicode="&#xa3;" horiz-adv-x="1081" d="M102 0v147q90 -2 144.5 32t52.5 122v352h-197v144h197v137q0 154 20.5 258t62.5 165.5t110.5 88.5t162.5 27h86v-144h-84q-55 0 -94 -14.5t-62.5 -55t-33.5 -119.5t-10 -206v-137h280v-144h-282v-383q4 -45 -13.5 -75.5t-48.5 -51.5h606v-143h-897z" />
<glyph unicode="&#xa5;" horiz-adv-x="1239" d="M20 1393h185l416 -596l415 596h183l-527 -738v-655h-143v655zM274 301v117h687v-117h-687zM274 610v117h687v-117h-687z" />
<glyph unicode="&#xa7;" horiz-adv-x="833" d="M57 643q0 100 48.5 162.5t130 92.5t178.5 30l-8 -119q-66 0 -110 -16.5t-65.5 -49t-21.5 -81.5q0 -43 36 -76t105 -56q31 -10 77 -22t94 -25.5t85 -31.5q66 -31 102.5 -79t36.5 -120q0 -92 -45 -152.5t-117.5 -90t-156.5 -29.5q-127 0 -215 52t-119 191h154 q14 -47 38.5 -74.5t61.5 -39t84 -11.5q61 0 112.5 28t51.5 91q0 66 -45 94.5t-94 42.5q-23 6 -70 17.5t-98 27t-90 33.5q-70 33 -105 86t-35 125zM84 1061q0 92 45 152.5t117.5 90t156.5 29.5q127 0 215.5 -52t118.5 -191h-153q-14 47 -39 74.5t-60.5 38.5t-85.5 11 q-61 0 -112 -26.5t-51 -91.5q0 -66 45 -93.5t94 -44.5q25 -6 71 -17t97 -26.5t90 -33.5q70 -33 104.5 -86.5t34.5 -124.5q0 -100 -48 -163t-129 -92.5t-179 -29.5l8 119q66 0 110 16.5t65.5 49t21.5 81.5q0 43 -35 76t-107 55q-31 10 -77 22.5t-93 27t-86 30.5 q-63 31 -101 80t-38 119z" />
<glyph unicode="&#xa8;" horiz-adv-x="964" d="M217 1628q0 39 25.5 64.5t64.5 25.5t65.5 -25.5t26.5 -64.5t-26.5 -65.5t-65.5 -26.5t-64.5 26.5t-25.5 65.5zM549 1628q0 39 25.5 64.5t64.5 25.5t65.5 -25.5t26.5 -64.5t-26.5 -65.5t-65.5 -26.5t-64.5 26.5t-25.5 65.5z" />
<glyph unicode="&#xa9;" horiz-adv-x="1529" d="M96 645q0 72 23.5 158t75 172t129 156.5t187.5 113.5t253 43q74 0 163 -22.5t177 -70.5t162.5 -124t120 -181.5t45.5 -244.5q0 -106 -43 -219t-127 -210t-209 -156.5t-289 -59.5q-137 0 -258 50t-213 138t-144.5 205t-52.5 252zM227 645q0 -141 71 -260t192.5 -189.5 t273.5 -70.5q150 0 271.5 68.5t194.5 186.5t73 265t-73 264t-195 185.5t-271 68.5q-154 0 -274.5 -71.5t-191.5 -189.5t-71 -257zM403 647q0 98 48.5 176t130.5 124t178 46q57 0 107.5 -14t91 -41t73.5 -63.5t53 -79.5h-122q-37 45 -87.5 67.5t-115.5 22.5q-70 0 -124 -34 t-86 -87t-32 -117q0 -55 28.5 -109.5t86 -90t141.5 -35.5q59 0 105.5 21.5t81.5 64.5h122q-27 -49 -61.5 -85t-74.5 -60.5t-87 -37t-100 -12.5q-94 0 -176 45t-131.5 124t-49.5 175z" />
<glyph unicode="&#xaa;" horiz-adv-x="868" d="M70 1061q0 92 42 173t116.5 131t168.5 50q84 0 147.5 -37t108.5 -94v115h107v-676h-107v115q-31 -39 -68.5 -69t-85 -45t-102.5 -15q-94 0 -168.5 49t-116.5 130t-42 173zM176 1061q0 -66 31 -122t85 -90t124 -34q68 0 122 34t84.5 90t30.5 122t-30.5 122t-85 90 t-121.5 34q-70 0 -124 -34t-85 -90.5t-31 -121.5z" />
<glyph unicode="&#xab;" horiz-adv-x="1302" d="M141 383v145l521 328v-156l-431 -270v53l431 -274v-154zM641 383v145l521 328v-156l-431 -270v53l431 -274v-154z" />
<glyph unicode="&#xad;" horiz-adv-x="839" d="M78 397v119h686v-119h-686z" />
<glyph unicode="&#xae;" horiz-adv-x="1529" d="M98 666q0 135 51.5 252.5t143.5 205.5t213 138.5t258 50.5q74 0 163 -22.5t177 -72t162.5 -125t120 -182t45.5 -245.5q0 -106 -43 -220t-127 -211.5t-209 -158t-289 -60.5q-147 0 -269 53.5t-211 145.5t-137.5 209t-48.5 242zM227 666q0 -141 71 -260t192.5 -190 t273.5 -71q150 0 271.5 69t194.5 186.5t73 265.5q0 147 -73 264t-195 185.5t-271 68.5q-154 0 -274.5 -72t-191.5 -189.5t-71 -256.5zM567 344v641h211q70 0 117 -21.5t72.5 -61.5t25.5 -99q0 -39 -27.5 -95.5t-99.5 -78.5l158 -285h-121l-129 268h-102v-268h-105zM672 707 h98q55 0 88 25.5t33 70.5t-33 71.5t-88 26.5h-98v-194z" />
<glyph unicode="&#xaf;" horiz-adv-x="1128" d="M172 1536v117h784v-117h-784z" />
<glyph unicode="&#xb0;" horiz-adv-x="942" d="M133 1092q0 90 45 158.5t122 107.5t171 39t170 -38t122 -106.5t46 -160.5q0 -90 -43 -159t-119 -108t-176 -39q-96 0 -173 38t-121 106.5t-44 161.5zM276 1090q0 -63 21.5 -106.5t64.5 -65t109 -21.5q45 0 89 14.5t75 56.5t31 122q0 70 -28 111.5t-72 61t-95 19.5 q-63 0 -107.5 -24.5t-66 -67.5t-21.5 -100z" />
<glyph unicode="&#xb1;" horiz-adv-x="983" d="M112 568v141h301v303h144v-303h303v-141h-303v-303h-144v303h-301zM141 47v143h666v-143h-666z" />
<glyph unicode="&#xb4;" horiz-adv-x="503" d="M41 1536l164 274h155l-204 -274h-115z" />
<glyph unicode="&#xb6;" horiz-adv-x="1064" d="M98 885q0 127 62.5 230.5t168 164.5t232.5 61h283v-1341h-88v1253h-129v-1253h-90v426q-123 18 -222.5 79.5t-158 159t-58.5 220.5z" />
<glyph unicode="&#xb7;" horiz-adv-x="546" d="M154 475q0 49 34.5 83t83.5 34q51 0 86 -33t35 -82t-37 -82.5t-84 -33.5q-45 0 -81.5 34.5t-36.5 79.5z" />
<glyph unicode="&#xb8;" horiz-adv-x="1116" d="M268 -473l51 106q45 -14 89.5 -23t85.5 -9q68 0 115.5 22.5t47.5 85.5q0 47 -39.5 72.5t-95.5 25.5q-35 0 -71.5 -7t-69.5 -11l135 299l115 2l-88 -184q2 2 53 2q66 0 121 -52.5t55 -148.5q0 -80 -42 -129t-105.5 -71.5t-130.5 -22.5q-53 0 -113 11.5t-113 31.5z" />
<glyph unicode="&#xba;" horiz-adv-x="829" d="M61 1067q0 98 47.5 178t128 127t179.5 47q98 0 178 -47t127 -127t47 -178q0 -100 -48 -180t-128 -126t-176 -46q-98 0 -178 46t-128.5 126t-48.5 180zM170 1067q0 -68 33 -124t89 -89t124 -33t123 33t89 89t34 124t-34 123t-89.5 89t-122.5 34q-70 0 -125 -34t-88 -89 t-33 -123z" />
<glyph unicode="&#xbb;" horiz-adv-x="1290" d="M141 55v154l430 274v-53l-430 270v156l521 -328v-145zM639 55v154l430 274v-53l-430 270v156l521 -328v-145z" />
<glyph unicode="&#xbf;" horiz-adv-x="1007" d="M117 -170q0 78 50 137.5t95 91.5q23 16 52.5 37t45.5 35q43 35 61.5 71t18.5 74v213h144v-215q0 -76 -31 -137t-109 -119q-45 -33 -78.5 -55t-52.5 -39q-20 -16 -36.5 -42.5t-16.5 -51.5q0 -72 39 -116t97.5 -63.5t113.5 -19.5q59 0 115.5 20.5t96.5 63.5t46 109h145 q-14 -160 -126.5 -246t-274.5 -86q-106 0 -196.5 39t-144.5 114.5t-54 184.5zM389 809q0 49 36 83t83 34q49 0 85 -34t36 -81t-36 -82t-85 -35q-47 0 -83 34t-36 81z" />
<glyph unicode="&#xc0;" horiz-adv-x="1263" d="M20 0l574 1393h78l571 -1393h-156l-149 379h-612l-150 -379h-156zM338 1772h156l184 -293h-115zM379 512h506l-252 641z" />
<glyph unicode="&#xc1;" horiz-adv-x="1263" d="M20 0l574 1393h78l571 -1393h-156l-149 379h-612l-150 -379h-156zM379 512h506l-252 641zM571 1487l164 274h155l-204 -274h-115z" />
<glyph unicode="&#xc2;" horiz-adv-x="1263" d="M20 0l574 1393h78l571 -1393h-156l-149 379h-612l-150 -379h-156zM342 1493l226 272h135l225 -272h-145l-166 203h37l-166 -203h-146zM379 512h506l-252 641z" />
<glyph unicode="&#xc3;" horiz-adv-x="1263" d="M20 0l574 1393h78l571 -1393h-156l-149 379h-612l-150 -379h-156zM289 1497q-2 74 19.5 131t65.5 90t110 33q53 0 97 -24.5t82 -57.5t66.5 -57.5t47.5 -24.5q37 0 54 16.5t23.5 48t6.5 76.5h100q8 -66 -9.5 -124t-61.5 -95t-118 -37q-49 0 -93 25t-82 58.5t-70.5 58 t-57.5 24.5q-33 0 -51 -23.5t-24.5 -56t-4.5 -61.5h-100zM379 512h506l-252 641z" />
<glyph unicode="&#xc4;" horiz-adv-x="1263" d="M20 0l574 1393h78l571 -1393h-156l-149 379h-612l-150 -379h-156zM375 1593q0 39 25.5 64.5t64.5 25.5t65.5 -25.5t26.5 -64.5t-26.5 -65.5t-65.5 -26.5t-64.5 26.5t-25.5 65.5zM379 512h506l-252 641zM707 1593q0 39 25.5 64.5t64.5 25.5t65.5 -25.5t26.5 -64.5 t-26.5 -65.5t-65.5 -26.5t-64.5 26.5t-25.5 65.5z" />
<glyph unicode="&#xc5;" horiz-adv-x="1263" d="M20 0l574 1393h78l571 -1393h-156l-149 379h-612l-150 -379h-156zM379 512h506l-252 641zM414 1677q0 63 31.5 114.5t84 82t115.5 30.5q61 0 113.5 -28.5t85.5 -80t33 -118.5q0 -94 -68 -158.5t-164 -64.5q-59 0 -112.5 28.5t-86 79.5t-32.5 115zM535 1679 q0 -45 33.5 -76t78.5 -31q47 0 78 31t31 76t-32 74.5t-79 29.5t-78.5 -29.5t-31.5 -74.5z" />
<glyph unicode="&#xc6;" horiz-adv-x="1691" d="M20 0l736 1393h813v-136h-645v-497h624v-133h-624v-494h645v-133h-789v358h-405l-191 -358h-164zM444 492h336v700l-14 -84z" />
<glyph unicode="&#xc7;" horiz-adv-x="1513" d="M92 694q0 143 51.5 272.5t145.5 229.5t221 157.5t276 57.5q145 0 272.5 -55.5t223.5 -154.5t148 -232h-158q-82 152 -215 223.5t-291 71.5q-86 0 -178 -38t-173 -112t-130 -179.5t-49 -240.5q0 -117 43 -220t118.5 -181t175 -122t213.5 -44q160 0 289 84t199 215h158 q-51 -133 -148.5 -233.5t-226 -156.5t-271.5 -56q-145 0 -271 56t-221 155.5t-148.5 228.5t-53.5 274zM534 -516l51 106q45 -14 89.5 -23t85.5 -9q68 0 115.5 22.5t47.5 85.5q0 47 -39.5 72.5t-95.5 25.5q-35 0 -71.5 -7t-69.5 -11l135 299l115 2l-88 -184q2 2 53 2 q66 0 121 -52.5t55 -148.5q0 -80 -42 -129t-105.5 -71.5t-130.5 -22.5q-53 0 -113 11.5t-113 31.5z" />
<glyph unicode="&#xc8;" horiz-adv-x="1134" d="M154 0v1393h827v-133h-684v-496h664v-135h-664v-496h684v-133h-827zM272 1772h156l184 -293h-115z" />
<glyph unicode="&#xc9;" horiz-adv-x="1134" d="M154 0v1393h827v-133h-684v-496h664v-135h-664v-496h684v-133h-827zM506 1487l164 274h155l-204 -274h-115z" />
<glyph unicode="&#xca;" horiz-adv-x="1134" d="M154 0v1393h827v-133h-684v-496h664v-135h-664v-496h684v-133h-827zM276 1493l226 272h135l225 -272h-145l-166 203h37l-166 -203h-146z" />
<glyph unicode="&#xcb;" horiz-adv-x="1134" d="M154 0v1393h827v-133h-684v-496h664v-135h-664v-496h684v-133h-827zM309 1593q0 39 25.5 64.5t64.5 25.5t65.5 -25.5t26.5 -64.5t-26.5 -65.5t-65.5 -26.5t-64.5 26.5t-25.5 65.5zM641 1593q0 39 25.5 64.5t64.5 25.5t65.5 -25.5t26.5 -64.5t-26.5 -65.5t-65.5 -26.5 t-64.5 26.5t-25.5 65.5z" />
<glyph unicode="&#xcc;" horiz-adv-x="450" d="M0 1772h156l184 -293h-115zM154 0v1393h143v-1393h-143z" />
<glyph unicode="&#xcd;" horiz-adv-x="450" d="M154 0v1393h143v-1393h-143zM234 1487l164 274h155l-204 -274h-115z" />
<glyph unicode="&#xce;" horiz-adv-x="450" d="M4 1493l226 272h135l225 -272h-145l-166 203h37l-166 -203h-146zM154 0v1393h143v-1393h-143z" />
<glyph unicode="&#xcf;" horiz-adv-x="450" d="M37 1593q0 39 25.5 64.5t64.5 25.5t65.5 -25.5t26.5 -64.5t-26.5 -65.5t-65.5 -26.5t-64.5 26.5t-25.5 65.5zM154 0v1393h143v-1393h-143zM369 1593q0 39 25.5 64.5t64.5 25.5t65.5 -25.5t26.5 -64.5t-26.5 -65.5t-65.5 -26.5t-64.5 26.5t-25.5 65.5z" />
<glyph unicode="&#xd0;" horiz-adv-x="1327" d="M16 604v117h138v672h364q147 0 277.5 -51.5t228.5 -143.5t154.5 -220t56.5 -282q0 -150 -55.5 -277.5t-152.5 -221t-227 -145.5t-282 -52h-364v604h-138zM297 143h225q162 0 291 72t206 197t77 284q0 162 -77 286t-206 195.5t-291 71.5h-225v-528h365v-117h-365v-461z " />
<glyph unicode="&#xd1;" horiz-adv-x="1232" d="M154 0v1393h61l721 -1024v1024h143v-1391h-61l-721 1024v-1026h-143zM231 1483q-2 74 19.5 131t65.5 90t110 33q53 0 97 -24.5t82 -57.5t66.5 -57.5t47.5 -24.5q37 0 54 16.5t23.5 48t6.5 76.5h100q8 -66 -9.5 -124t-61.5 -95t-118 -37q-49 0 -93 25t-82 58.5t-70.5 58 t-57.5 24.5q-33 0 -51 -23.5t-24.5 -56t-4.5 -61.5h-100z" />
<glyph unicode="&#xd2;" horiz-adv-x="1615" d="M92 700q0 147 55.5 276.5t154.5 229t228 154.5t277 55q150 0 280 -55t228 -153.5t153.5 -227.5t55.5 -279q0 -154 -57.5 -283.5t-158 -227t-229.5 -151.5t-272 -54q-147 0 -276.5 56t-227.5 155.5t-154.5 228.5t-56.5 276zM236 700q0 -119 44 -223t122.5 -183t182 -123 t222.5 -44q121 0 224.5 44t182 123t122.5 183.5t44 222.5q0 119 -44 222.5t-122.5 182.5t-183 123t-223.5 44t-222.5 -44t-182 -123t-122.5 -182.5t-44 -222.5zM514 1796h156l184 -293h-115z" />
<glyph unicode="&#xd3;" horiz-adv-x="1615" d="M92 700q0 147 55.5 276.5t154.5 229t228 154.5t277 55q150 0 280 -55t228 -153.5t153.5 -227.5t55.5 -279q0 -154 -57.5 -283.5t-158 -227t-229.5 -151.5t-272 -54q-147 0 -276.5 56t-227.5 155.5t-154.5 228.5t-56.5 276zM236 700q0 -119 44 -223t122.5 -183t182 -123 t222.5 -44q121 0 224.5 44t182 123t122.5 183.5t44 222.5q0 119 -44 222.5t-122.5 182.5t-183 123t-223.5 44t-222.5 -44t-182 -123t-122.5 -182.5t-44 -222.5zM748 1511l164 274h155l-204 -274h-115z" />
<glyph unicode="&#xd4;" horiz-adv-x="1615" d="M92 700q0 147 55.5 276.5t154.5 229t228 154.5t277 55q150 0 280 -55t228 -153.5t153.5 -227.5t55.5 -279q0 -154 -57.5 -283.5t-158 -227t-229.5 -151.5t-272 -54q-147 0 -276.5 56t-227.5 155.5t-154.5 228.5t-56.5 276zM236 700q0 -119 44 -223t122.5 -183t182 -123 t222.5 -44q121 0 224.5 44t182 123t122.5 183.5t44 222.5q0 119 -44 222.5t-122.5 182.5t-183 123t-223.5 44t-222.5 -44t-182 -123t-122.5 -182.5t-44 -222.5zM518 1518l226 272h135l225 -272h-145l-166 203h37l-166 -203h-146z" />
<glyph unicode="&#xd5;" horiz-adv-x="1615" d="M92 700q0 147 55.5 276.5t154.5 229t228 154.5t277 55q150 0 280 -55t228 -153.5t153.5 -227.5t55.5 -279q0 -154 -57.5 -283.5t-158 -227t-229.5 -151.5t-272 -54q-147 0 -276.5 56t-227.5 155.5t-154.5 228.5t-56.5 276zM236 700q0 -119 44 -223t122.5 -183t182 -123 t222.5 -44q121 0 224.5 44t182 123t122.5 183.5t44 222.5q0 119 -44 222.5t-122.5 182.5t-183 123t-223.5 44t-222.5 -44t-182 -123t-122.5 -182.5t-44 -222.5zM465 1522q-2 74 19.5 131t65.5 90t110 33q53 0 97 -24.5t82 -57.5t66.5 -57.5t47.5 -24.5q37 0 54 16.5t23.5 48 t6.5 76.5h100q8 -66 -9.5 -124t-61.5 -95t-118 -37q-49 0 -93 25t-82 58.5t-70.5 58t-57.5 24.5q-33 0 -51 -23.5t-24.5 -56t-4.5 -61.5h-100z" />
<glyph unicode="&#xd6;" horiz-adv-x="1615" d="M92 700q0 147 55.5 276.5t154.5 229t228 154.5t277 55q150 0 280 -55t228 -153.5t153.5 -227.5t55.5 -279q0 -154 -57.5 -283.5t-158 -227t-229.5 -151.5t-272 -54q-147 0 -276.5 56t-227.5 155.5t-154.5 228.5t-56.5 276zM236 700q0 -119 44 -223t122.5 -183t182 -123 t222.5 -44q121 0 224.5 44t182 123t122.5 183.5t44 222.5q0 119 -44 222.5t-122.5 182.5t-183 123t-223.5 44t-222.5 -44t-182 -123t-122.5 -182.5t-44 -222.5zM551 1618q0 39 25.5 64.5t64.5 25.5t65.5 -25.5t26.5 -64.5t-26.5 -65.5t-65.5 -26.5t-64.5 26.5t-25.5 65.5z M883 1618q0 39 25.5 64.5t64.5 25.5t65.5 -25.5t26.5 -64.5t-26.5 -65.5t-65.5 -26.5t-64.5 26.5t-25.5 65.5z" />
<glyph unicode="&#xd7;" horiz-adv-x="942" d="M113 197l256 258l-256 258l100 102l258 -258l258 258l100 -102l-256 -258l256 -258l-100 -101l-258 258l-258 -258z" />
<glyph unicode="&#xd8;" horiz-adv-x="1615" d="M92 700q0 141 53.5 270.5t150.5 229.5t227 157.5t284 57.5q135 0 254 -45t213 -127l88 86l80 -80l-88 -86q84 -98 127 -215t43 -248q0 -156 -58.5 -286.5t-159 -227t-229.5 -149.5t-270 -53q-150 0 -268.5 53t-194.5 117l-90 -91l-80 80l90 90q-70 82 -121 201t-51 266z M236 700q0 -104 32.5 -195t98.5 -169l807 805q-78 66 -170.5 98.5t-196.5 32.5q-119 0 -222.5 -44t-182 -123t-122.5 -182.5t-44 -222.5zM446 256q78 -63 168.5 -96t192.5 -33q121 0 224.5 44t182 123t122.5 183.5t44 222.5q0 102 -31.5 192.5t-95.5 168.5z" />
<glyph unicode="&#xd9;" horiz-adv-x="1284" d="M123 461v932h143v-953q0 -106 49.5 -176.5t135.5 -104.5t192 -34q113 0 197 36t131 106.5t47 172.5v953h143v-932q0 -152 -65.5 -259.5t-181 -163.5t-271.5 -56t-272.5 56t-182 163.5t-65.5 259.5zM344 1743h156l184 -293h-115z" />
<glyph unicode="&#xda;" horiz-adv-x="1284" d="M123 461v932h143v-953q0 -106 49.5 -176.5t135.5 -104.5t192 -34q113 0 197 36t131 106.5t47 172.5v953h143v-932q0 -152 -65.5 -259.5t-181 -163.5t-271.5 -56t-272.5 56t-182 163.5t-65.5 259.5zM578 1458l164 274h155l-204 -274h-115z" />
<glyph unicode="&#xdb;" horiz-adv-x="1284" d="M123 461v932h143v-953q0 -106 49.5 -176.5t135.5 -104.5t192 -34q113 0 197 36t131 106.5t47 172.5v953h143v-932q0 -152 -65.5 -259.5t-181 -163.5t-271.5 -56t-272.5 56t-182 163.5t-65.5 259.5zM348 1464l226 272h135l225 -272h-145l-166 203h37l-166 -203h-146z" />
<glyph unicode="&#xdc;" horiz-adv-x="1284" d="M123 461v932h143v-953q0 -106 49.5 -176.5t135.5 -104.5t192 -34q113 0 197 36t131 106.5t47 172.5v953h143v-932q0 -152 -65.5 -259.5t-181 -163.5t-271.5 -56t-272.5 56t-182 163.5t-65.5 259.5zM381 1565q0 39 25.5 64.5t64.5 25.5t65.5 -25.5t26.5 -64.5t-26.5 -65.5 t-65.5 -26.5t-64.5 26.5t-25.5 65.5zM713 1565q0 39 25.5 64.5t64.5 25.5t65.5 -25.5t26.5 -64.5t-26.5 -65.5t-65.5 -26.5t-64.5 26.5t-25.5 65.5z" />
<glyph unicode="&#xdd;" horiz-adv-x="1239" d="M20 1393h185l416 -596l415 596h183l-527 -738v-655h-143v655zM559 1470l164 274h155l-204 -274h-115z" />
<glyph unicode="&#xde;" horiz-adv-x="1083" d="M154 0v1393h143v-205h303q121 0 221.5 -52.5t160.5 -146.5t60 -221q0 -121 -58 -217t-158.5 -150.5t-225.5 -54.5h-303v-346h-143zM297 481h324q84 0 146 40t97 105.5t35 145.5q0 82 -34 145.5t-96 99.5t-148 36h-324v-572z" />
<glyph unicode="&#xdf;" horiz-adv-x="1128" d="M143 0v903q0 158 37 269.5t127 171t248 59.5q100 0 188 -40t142.5 -114.5t54.5 -181.5q0 -100 -54.5 -169t-129.5 -107q119 -45 205 -136.5t86 -234.5q0 -119 -61.5 -214t-162 -150.5t-219.5 -55.5h-135v137h135q78 0 145.5 40t109.5 107.5t42 149.5t-42 142.5 t-109.5 94.5t-145.5 34h-69v126h20q66 0 119 29t83.5 78t30.5 111q0 90 -66.5 152.5t-166.5 62.5q-117 0 -173 -49.5t-73.5 -141.5t-17.5 -221v-852h-148z" />
<glyph unicode="&#xe0;" horiz-adv-x="1157" d="M92 451q0 125 56.5 231t155.5 173t226 67q111 0 196 -48.5t144 -125.5v153h144v-901h-144v154q-39 -51 -90 -91t-113.5 -61.5t-136.5 -21.5q-127 0 -226 66.5t-155.5 174t-56.5 230.5zM236 451q0 -86 40.5 -161t112.5 -121t164 -46t163.5 46t112.5 121t41 161 q0 88 -41 161.5t-112.5 119.5t-163.5 46t-164 -46t-112.5 -119.5t-40.5 -161.5zM270 1303h156l184 -293h-115z" />
<glyph unicode="&#xe1;" horiz-adv-x="1157" d="M92 451q0 125 56.5 231t155.5 173t226 67q111 0 196 -48.5t144 -125.5v153h144v-901h-144v154q-39 -51 -90 -91t-113.5 -61.5t-136.5 -21.5q-127 0 -226 66.5t-155.5 174t-56.5 230.5zM236 451q0 -86 40.5 -161t112.5 -121t164 -46t163.5 46t112.5 121t41 161 q0 88 -41 161.5t-112.5 119.5t-163.5 46t-164 -46t-112.5 -119.5t-40.5 -161.5zM504 1018l164 274h155l-204 -274h-115z" />
<glyph unicode="&#xe2;" horiz-adv-x="1157" d="M92 451q0 125 56.5 231t155.5 173t226 67q111 0 196 -48.5t144 -125.5v153h144v-901h-144v154q-39 -51 -90 -91t-113.5 -61.5t-136.5 -21.5q-127 0 -226 66.5t-155.5 174t-56.5 230.5zM236 451q0 -86 40.5 -161t112.5 -121t164 -46t163.5 46t112.5 121t41 161 q0 88 -41 161.5t-112.5 119.5t-163.5 46t-164 -46t-112.5 -119.5t-40.5 -161.5zM274 1024l226 272h135l225 -272h-145l-166 203h37l-166 -203h-146z" />
<glyph unicode="&#xe3;" horiz-adv-x="1157" d="M92 451q0 125 56.5 231t155.5 173t226 67q111 0 196 -48.5t144 -125.5v153h144v-901h-144v154q-39 -51 -90 -91t-113.5 -61.5t-136.5 -21.5q-127 0 -226 66.5t-155.5 174t-56.5 230.5zM221 1028q-2 74 19.5 131t65.5 90t110 33q53 0 97 -24.5t82 -57.5t66.5 -57.5 t47.5 -24.5q37 0 54 16.5t23.5 48t6.5 76.5h100q8 -66 -9.5 -124t-61.5 -95t-118 -37q-49 0 -93 25t-82 58.5t-70.5 58t-57.5 24.5q-33 0 -51 -23.5t-24.5 -56t-4.5 -61.5h-100zM236 451q0 -86 40.5 -161t112.5 -121t164 -46t163.5 46t112.5 121t41 161q0 88 -41 161.5 t-112.5 119.5t-163.5 46t-164 -46t-112.5 -119.5t-40.5 -161.5z" />
<glyph unicode="&#xe4;" horiz-adv-x="1157" d="M92 451q0 125 56.5 231t155.5 173t226 67q111 0 196 -48.5t144 -125.5v153h144v-901h-144v154q-39 -51 -90 -91t-113.5 -61.5t-136.5 -21.5q-127 0 -226 66.5t-155.5 174t-56.5 230.5zM236 451q0 -86 40.5 -161t112.5 -121t164 -46t163.5 46t112.5 121t41 161 q0 88 -41 161.5t-112.5 119.5t-163.5 46t-164 -46t-112.5 -119.5t-40.5 -161.5zM307 1124q0 39 25.5 64.5t64.5 25.5t65.5 -25.5t26.5 -64.5t-26.5 -65.5t-65.5 -26.5t-64.5 26.5t-25.5 65.5zM639 1124q0 39 25.5 64.5t64.5 25.5t65.5 -25.5t26.5 -64.5t-26.5 -65.5 t-65.5 -26.5t-64.5 26.5t-25.5 65.5z" />
<glyph unicode="&#xe5;" horiz-adv-x="1157" d="M92 451q0 125 56.5 231t155.5 173t226 67q111 0 196 -48.5t144 -125.5v153h144v-901h-144v154q-39 -51 -90 -91t-113.5 -61.5t-136.5 -21.5q-127 0 -226 66.5t-155.5 174t-56.5 230.5zM236 451q0 -86 40.5 -161t112.5 -121t164 -46t163.5 46t112.5 121t41 161 q0 88 -41 161.5t-112.5 119.5t-163.5 46t-164 -46t-112.5 -119.5t-40.5 -161.5zM346 1208q0 63 31.5 114.5t84 82t115.5 30.5q61 0 113.5 -28.5t85.5 -80t33 -118.5q0 -94 -68 -158.5t-164 -64.5q-59 0 -112.5 28.5t-86 79.5t-32.5 115zM467 1210q0 -45 33.5 -76t78.5 -31 q47 0 78 31t31 76t-32 74.5t-79 29.5t-78.5 -29.5t-31.5 -74.5z" />
<glyph unicode="&#xe6;" horiz-adv-x="1898" d="M92 451q0 125 56.5 231t155.5 173t226 67q111 0 196 -48.5t144 -125.5v153h144v-901h-144v154q-39 -51 -90 -91t-113.5 -61.5t-136.5 -21.5q-127 0 -226 66.5t-155.5 174t-56.5 230.5zM236 451q0 -86 40.5 -161t112.5 -121t164 -46t163.5 46t112.5 121t41 161 q0 88 -41 161.5t-112.5 119.5t-163.5 46t-164 -46t-112.5 -119.5t-40.5 -161.5zM875 455q0 131 63.5 237.5t170 170t237.5 63.5q127 0 233.5 -63.5t172 -168t65.5 -231.5v-57h-852v133h700q-25 102 -113.5 172.5t-205.5 70.5q-96 0 -169 -45t-114 -121.5t-41 -173.5 q0 -94 47.5 -164.5t121 -109.5t155.5 -39q63 0 117.5 14.5t100.5 43t83 73.5l109 -90q-45 -57 -110 -99t-136.5 -63.5t-141.5 -21.5q-135 0 -246.5 58t-179 163.5t-67.5 247.5z" />
<glyph unicode="&#xe7;" horiz-adv-x="1067" d="M82 451q0 129 61.5 235.5t166 170t233.5 63.5q100 0 189 -41t156.5 -118t96.5 -183h-156q-37 88 -114.5 140t-157.5 52q-88 0 -163 -40t-120 -111.5t-45 -167.5q0 -86 41 -160t113 -118t160 -44q86 0 158.5 45t113.5 121h162q-35 -100 -102.5 -171t-156 -107.5 t-188.5 -36.5q-82 0 -161.5 34.5t-144 97t-103.5 148.5t-39 191zM266 -496l51 106q45 -14 89.5 -23t85.5 -9q68 0 115.5 22.5t47.5 85.5q0 47 -39.5 72.5t-95.5 25.5q-35 0 -71.5 -7t-69.5 -11l135 299l115 2l-88 -184q2 2 53 2q66 0 121 -52.5t55 -148.5q0 -80 -42 -129 t-105.5 -71.5t-130.5 -22.5q-53 0 -113 11.5t-113 31.5z" />
<glyph unicode="&#xe8;" d="M82 455q0 131 63.5 237.5t170 170t237.5 63.5q127 0 233.5 -63.5t172 -168t65.5 -231.5v-57h-852v133h700q-25 102 -113.5 172.5t-205.5 70.5q-96 0 -169 -45t-114 -121.5t-41 -173.5q0 -94 47.5 -164.5t121 -109.5t155.5 -39q63 0 117.5 14.5t100.5 43t83 73.5l109 -90 q-45 -57 -110 -99t-136.5 -63.5t-141.5 -21.5q-135 0 -246.5 58t-179 163.5t-67.5 247.5zM260 1309h156l184 -293h-115z" />
<glyph unicode="&#xe9;" d="M82 455q0 131 63.5 237.5t170 170t237.5 63.5q127 0 233.5 -63.5t172 -168t65.5 -231.5v-57h-852v133h700q-25 102 -113.5 172.5t-205.5 70.5q-96 0 -169 -45t-114 -121.5t-41 -173.5q0 -94 47.5 -164.5t121 -109.5t155.5 -39q63 0 117.5 14.5t100.5 43t83 73.5l109 -90 q-45 -57 -110 -99t-136.5 -63.5t-141.5 -21.5q-135 0 -246.5 58t-179 163.5t-67.5 247.5zM494 1024l164 274h155l-204 -274h-115z" />
<glyph unicode="&#xea;" d="M82 455q0 131 63.5 237.5t170 170t237.5 63.5q127 0 233.5 -63.5t172 -168t65.5 -231.5v-57h-852v133h700q-25 102 -113.5 172.5t-205.5 70.5q-96 0 -169 -45t-114 -121.5t-41 -173.5q0 -94 47.5 -164.5t121 -109.5t155.5 -39q63 0 117.5 14.5t100.5 43t83 73.5l109 -90 q-45 -57 -110 -99t-136.5 -63.5t-141.5 -21.5q-135 0 -246.5 58t-179 163.5t-67.5 247.5zM264 1030l226 272h135l225 -272h-145l-166 203h37l-166 -203h-146z" />
<glyph unicode="&#xeb;" d="M82 455q0 131 63.5 237.5t170 170t237.5 63.5q127 0 233.5 -63.5t172 -168t65.5 -231.5v-57h-852v133h700q-25 102 -113.5 172.5t-205.5 70.5q-96 0 -169 -45t-114 -121.5t-41 -173.5q0 -94 47.5 -164.5t121 -109.5t155.5 -39q63 0 117.5 14.5t100.5 43t83 73.5l109 -90 q-45 -57 -110 -99t-136.5 -63.5t-141.5 -21.5q-135 0 -246.5 58t-179 163.5t-67.5 247.5zM297 1130q0 39 25.5 64.5t64.5 25.5t65.5 -25.5t26.5 -64.5t-26.5 -65.5t-65.5 -26.5t-64.5 26.5t-25.5 65.5zM629 1130q0 39 25.5 64.5t64.5 25.5t65.5 -25.5t26.5 -64.5 t-26.5 -65.5t-65.5 -26.5t-64.5 26.5t-25.5 65.5z" />
<glyph unicode="&#xec;" horiz-adv-x="468" d="M-61 1286h156l184 -293h-115zM164 0v901h143v-901h-143z" />
<glyph unicode="&#xed;" horiz-adv-x="468" d="M164 0v901h143v-901h-143zM172 1001l164 274h155l-204 -274h-115z" />
<glyph unicode="&#xee;" horiz-adv-x="468" d="M-58 1008l226 272h135l225 -272h-145l-166 203h37l-166 -203h-146zM164 0v901h143v-901h-143z" />
<glyph unicode="&#xef;" horiz-adv-x="468" d="M-25 1108q0 39 25.5 64.5t64.5 25.5t65.5 -25.5t26.5 -64.5t-26.5 -65.5t-65.5 -26.5t-64.5 26.5t-25.5 65.5zM164 0v901h143v-901h-143zM307 1108q0 39 25.5 64.5t64.5 25.5t65.5 -25.5t26.5 -64.5t-26.5 -65.5t-65.5 -26.5t-64.5 26.5t-25.5 65.5z" />
<glyph unicode="&#xf0;" horiz-adv-x="1167" d="M82 424q0 127 63.5 226.5t170 156.5t237.5 57t237.5 -57t170 -156.5t63.5 -226.5t-63.5 -226.5t-171 -155.5t-236.5 -56t-236.5 56t-171 155.5t-63.5 226.5zM225 424q0 -84 44 -151.5t119 -105.5t165 -38t165 38t119 105.5t44 151.5q0 86 -44 153.5t-118 105.5t-166 38 q-90 0 -165 -38t-119 -105.5t-44 -153.5zM295 1364v143q240 -16 403.5 -135t246.5 -352.5t79 -595.5h-143q-4 197 -35 363.5t-97.5 290.5t-177 199t-276.5 87zM442 1065l443 442l82 -82l-443 -442z" />
<glyph unicode="&#xf1;" horiz-adv-x="1032" d="M143 0v901h144v-156q43 74 116.5 124.5t174.5 50.5q106 0 179.5 -42t112.5 -121t39 -194v-563h-143v563q0 53 -15.5 102.5t-53.5 80t-103 30.5q-111 0 -178.5 -53t-98 -144.5t-30.5 -201.5v-377h-144zM201 1022q-2 74 19.5 131t65.5 90t110 33q53 0 97 -24.5t82 -57.5 t66.5 -57.5t47.5 -24.5q37 0 54 16.5t23.5 48t6.5 76.5h100q8 -66 -9.5 -124t-61.5 -95t-118 -37q-49 0 -93 25t-82 58.5t-70.5 58t-57.5 24.5q-33 0 -51 -23.5t-24.5 -56t-4.5 -61.5h-100z" />
<glyph unicode="&#xf2;" d="M82 455q0 131 63.5 237.5t170 170t237.5 63.5t237.5 -63.5t170 -170t63.5 -237.5t-63.5 -237.5t-171 -169t-236.5 -62.5t-236.5 62.5t-171 169t-63.5 237.5zM225 455q0 -90 44 -164t119 -118t165 -44t165 44t119 118t44 164q0 92 -44 165.5t-118 117.5t-166 44 q-90 0 -165 -44t-119 -117.5t-44 -165.5zM256 1307h156l184 -293h-115z" />
<glyph unicode="&#xf3;" d="M82 455q0 131 63.5 237.5t170 170t237.5 63.5t237.5 -63.5t170 -170t63.5 -237.5t-63.5 -237.5t-171 -169t-236.5 -62.5t-236.5 62.5t-171 169t-63.5 237.5zM225 455q0 -90 44 -164t119 -118t165 -44t165 44t119 118t44 164q0 92 -44 165.5t-118 117.5t-166 44 q-90 0 -165 -44t-119 -117.5t-44 -165.5zM490 1022l164 274h155l-204 -274h-115z" />
<glyph unicode="&#xf4;" d="M82 455q0 131 63.5 237.5t170 170t237.5 63.5t237.5 -63.5t170 -170t63.5 -237.5t-63.5 -237.5t-171 -169t-236.5 -62.5t-236.5 62.5t-171 169t-63.5 237.5zM225 455q0 -90 44 -164t119 -118t165 -44t165 44t119 118t44 164q0 92 -44 165.5t-118 117.5t-166 44 q-90 0 -165 -44t-119 -117.5t-44 -165.5zM260 1028l226 272h135l225 -272h-145l-166 203h37l-166 -203h-146z" />
<glyph unicode="&#xf5;" d="M82 455q0 131 63.5 237.5t170 170t237.5 63.5t237.5 -63.5t170 -170t63.5 -237.5t-63.5 -237.5t-171 -169t-236.5 -62.5t-236.5 62.5t-171 169t-63.5 237.5zM207 1032q-2 74 19.5 131t65.5 90t110 33q53 0 97 -24.5t82 -57.5t66.5 -57.5t47.5 -24.5q37 0 54 16.5t23.5 48 t6.5 76.5h100q8 -66 -9.5 -124t-61.5 -95t-118 -37q-49 0 -93 25t-82 58.5t-70.5 58t-57.5 24.5q-33 0 -51 -23.5t-24.5 -56t-4.5 -61.5h-100zM225 455q0 -90 44 -164t119 -118t165 -44t165 44t119 118t44 164q0 92 -44 165.5t-118 117.5t-166 44q-90 0 -165 -44 t-119 -117.5t-44 -165.5z" />
<glyph unicode="&#xf6;" d="M82 455q0 131 63.5 237.5t170 170t237.5 63.5t237.5 -63.5t170 -170t63.5 -237.5t-63.5 -237.5t-171 -169t-236.5 -62.5t-236.5 62.5t-171 169t-63.5 237.5zM225 455q0 -90 44 -164t119 -118t165 -44t165 44t119 118t44 164q0 92 -44 165.5t-118 117.5t-166 44 q-90 0 -165 -44t-119 -117.5t-44 -165.5zM293 1128q0 39 25.5 64.5t64.5 25.5t65.5 -25.5t26.5 -64.5t-26.5 -65.5t-65.5 -26.5t-64.5 26.5t-25.5 65.5zM625 1128q0 39 25.5 64.5t64.5 25.5t65.5 -25.5t26.5 -64.5t-26.5 -65.5t-65.5 -26.5t-64.5 26.5t-25.5 65.5z" />
<glyph unicode="&#xf7;" horiz-adv-x="942" d="M127 385v143h686v-143h-686zM371 137q0 47 32.5 81t79.5 34t81 -34t34 -81t-34 -79.5t-81 -32.5t-79.5 32.5t-32.5 79.5zM371 760q0 47 32.5 80.5t79.5 33.5t81 -33.5t34 -80.5t-34 -80t-81 -33t-79.5 33t-32.5 80z" />
<glyph unicode="&#xf8;" horiz-adv-x="1126" d="M88 55l107 107q-47 59 -75 134t-28 159q0 131 63.5 237.5t170 170t237.5 63.5q84 0 159 -27t134 -74l100 101l80 -80l-100 -101q47 -59 72.5 -132.5t25.5 -157.5q0 -131 -63.5 -237.5t-171 -169t-236.5 -62.5q-82 0 -155.5 25.5t-133.5 70.5l-106 -107zM236 455 q0 -53 16 -101.5t45 -89.5l457 459q-39 29 -88.5 44t-102.5 15q-90 0 -164.5 -44t-118.5 -117.5t-44 -165.5zM379 186q39 -27 86 -42t98 -15q90 0 165 44t119 118t44 164q0 106 -57 186z" />
<glyph unicode="&#xf9;" horiz-adv-x="1032" d="M143 338v563h144v-563q0 -53 15 -102.5t53 -80t104 -30.5q121 0 187.5 53t93 144.5t26.5 201.5v377h143v-901h-143v154q-51 -86 -126 -129t-175 -43q-106 0 -178 48t-108 128t-36 180zM227 1270h156l184 -293h-115z" />
<glyph unicode="&#xfa;" horiz-adv-x="1032" d="M143 338v563h144v-563q0 -53 15 -102.5t53 -80t104 -30.5q121 0 187.5 53t93 144.5t26.5 201.5v377h143v-901h-143v154q-51 -86 -126 -129t-175 -43q-106 0 -178 48t-108 128t-36 180zM461 985l164 274h155l-204 -274h-115z" />
<glyph unicode="&#xfb;" horiz-adv-x="1032" d="M143 338v563h144v-563q0 -53 15 -102.5t53 -80t104 -30.5q121 0 187.5 53t93 144.5t26.5 201.5v377h143v-901h-143v154q-51 -86 -126 -129t-175 -43q-106 0 -178 48t-108 128t-36 180zM231 991l226 272h135l225 -272h-145l-166 203h37l-166 -203h-146z" />
<glyph unicode="&#xfc;" horiz-adv-x="1032" d="M143 338v563h144v-563q0 -53 15 -102.5t53 -80t104 -30.5q121 0 187.5 53t93 144.5t26.5 201.5v377h143v-901h-143v154q-51 -86 -126 -129t-175 -43q-106 0 -178 48t-108 128t-36 180zM264 1091q0 39 25.5 64.5t64.5 25.5t65.5 -25.5t26.5 -64.5t-26.5 -65.5t-65.5 -26.5 t-64.5 26.5t-25.5 65.5zM596 1091q0 39 25.5 64.5t64.5 25.5t65.5 -25.5t26.5 -64.5t-26.5 -65.5t-65.5 -26.5t-64.5 26.5t-25.5 65.5z" />
<glyph unicode="&#xfd;" horiz-adv-x="911" d="M20 901h164l289 -604l258 604h160l-623 -1413h-174l303 659zM399 993l164 274h155l-204 -274h-115z" />
<glyph unicode="&#xfe;" horiz-adv-x="1146" d="M143 -512v2048h144v-788q47 61 131 117.5t209 56.5q127 0 225 -65.5t155.5 -172t57.5 -233.5q0 -125 -57.5 -232.5t-155.5 -173t-225 -65.5q-84 0 -150.5 27.5t-114 67.5t-75.5 79v-666h-144zM287 451q0 -86 41 -161t112.5 -121t163.5 -46t164 46t113 121t41 161 q0 88 -41 161.5t-113 119.5t-164 46t-163.5 -46t-112.5 -119.5t-41 -161.5z" />
<glyph unicode="&#xff;" horiz-adv-x="911" d="M20 901h164l289 -604l258 604h160l-623 -1413h-174l303 659zM203 1100q0 39 25.5 64.5t64.5 25.5t65.5 -25.5t26.5 -64.5t-26.5 -65.5t-65.5 -26.5t-64.5 26.5t-25.5 65.5zM535 1100q0 39 25.5 64.5t64.5 25.5t65.5 -25.5t26.5 -64.5t-26.5 -65.5t-65.5 -26.5t-64.5 26.5 t-25.5 65.5z" />
<glyph unicode="&#x152;" horiz-adv-x="2043" d="M154 696q0 152 55 279t152.5 220t228.5 145.5t280 52.5h1049v-133h-684v-496h663v-135h-663v-496h684v-133h-1049q-147 0 -277 51t-228.5 143.5t-154.5 220.5t-56 281zM293 696q0 -160 76.5 -284.5t206.5 -196.5t290 -72h226v1106h-226q-160 0 -290 -71.5t-206.5 -195.5 t-76.5 -286z" />
<glyph unicode="&#x153;" horiz-adv-x="1902" d="M82 455q0 131 63.5 237.5t170 170t237.5 63.5q123 0 228.5 -58.5t170.5 -160.5q72 113 178.5 166t206.5 53q127 0 238 -57.5t178.5 -160t67.5 -237.5v-76h-793q14 -80 62.5 -139t117 -93t144.5 -34q78 0 149.5 36t116.5 99h164q-59 -135 -177 -206.5t-245 -71.5 t-233.5 56t-174.5 163q-66 -102 -171 -160.5t-216 -58.5q-131 0 -240.5 59t-176 164.5t-66.5 245.5zM225 455q0 -90 44 -164t119 -118t165 -44t165 44t119 118t44 164q0 92 -44 165.5t-118 117.5t-166 44q-90 0 -165 -44t-119 -117.5t-44 -165.5zM1032 528h639 q-14 55 -44 102.5t-72 81t-93 52t-110 18.5q-57 0 -109.5 -18.5t-95.5 -52t-73 -80t-42 -103.5z" />
<glyph unicode="&#x178;" horiz-adv-x="1239" d="M20 1393h185l416 -596l415 596h183l-527 -738v-655h-143v655zM362 1577q0 39 25.5 64.5t64.5 25.5t65.5 -25.5t26.5 -64.5t-26.5 -65.5t-65.5 -26.5t-64.5 26.5t-25.5 65.5zM694 1577q0 39 25.5 64.5t64.5 25.5t65.5 -25.5t26.5 -64.5t-26.5 -65.5t-65.5 -26.5 t-64.5 26.5t-25.5 65.5z" />
<glyph unicode="&#x2c6;" horiz-adv-x="749" d="M20 1536l226 272h135l225 -272h-145l-166 203h37l-166 -203h-146z" />
<glyph unicode="&#x2dc;" horiz-adv-x="964" d="M133 1495q-2 74 19.5 131t65.5 90t110 33q53 0 97 -24.5t82 -57.5t66.5 -57.5t47.5 -24.5q37 0 54 16.5t23.5 48t6.5 76.5h100q8 -66 -9.5 -124t-61.5 -95t-118 -37q-49 0 -93 25t-82 58.5t-70.5 58t-57.5 24.5q-33 0 -51 -23.5t-24.5 -56t-4.5 -61.5h-100z" />
<glyph unicode="&#x2000;" horiz-adv-x="952" />
<glyph unicode="&#x2001;" horiz-adv-x="1904" />
<glyph unicode="&#x2002;" horiz-adv-x="952" />
<glyph unicode="&#x2003;" horiz-adv-x="1904" />
<glyph unicode="&#x2004;" horiz-adv-x="634" />
<glyph unicode="&#x2005;" horiz-adv-x="476" />
<glyph unicode="&#x2006;" horiz-adv-x="317" />
<glyph unicode="&#x2007;" horiz-adv-x="317" />
<glyph unicode="&#x2008;" horiz-adv-x="238" />
<glyph unicode="&#x2009;" horiz-adv-x="380" />
<glyph unicode="&#x200a;" horiz-adv-x="105" />
<glyph unicode="&#x2010;" horiz-adv-x="839" d="M78 397v119h686v-119h-686z" />
<glyph unicode="&#x2011;" horiz-adv-x="839" d="M78 397v119h686v-119h-686z" />
<glyph unicode="&#x2012;" horiz-adv-x="839" d="M78 397v119h686v-119h-686z" />
<glyph unicode="&#x2013;" horiz-adv-x="798" d="M47 369v118h707v-118h-707z" />
<glyph unicode="&#x2014;" horiz-adv-x="1411" d="M47 369v118h1319v-118h-1319z" />
<glyph unicode="&#x2018;" horiz-adv-x="370" d="M55 1096q0 57 25.5 117.5t67.5 114.5t90 89l59 -76q-18 -18 -47 -54t-50.5 -73.5t-23.5 -66.5h14q35 -2 59.5 -33t24.5 -70q0 -33 -16 -56t-39.5 -36.5t-50.5 -13.5q-63 0 -88 47t-25 111z" />
<glyph unicode="&#x2019;" horiz-adv-x="370" d="M55 1012q18 18 47 52t51.5 72t22.5 66h-10q-37 0 -62.5 32t-25.5 73q0 33 16.5 56t41 36.5t48.5 13.5q66 0 90.5 -47t24.5 -113q0 -57 -25.5 -117.5t-67.5 -112.5t-91 -89z" />
<glyph unicode="&#x201a;" horiz-adv-x="475" d="M80 125q0 37 16.5 65.5t43 46t59.5 17.5q63 0 96 -48t33 -132q0 -63 -26 -130t-68 -124.5t-91 -98.5l-59 86q16 18 42 52.5t48.5 72t28.5 68.5h-4q-47 0 -83 35t-36 90z" />
<glyph unicode="&#x201c;" horiz-adv-x="712" d="M55 1096q0 57 25.5 117.5t67.5 114.5t90 89l59 -80q-18 -16 -47 -51t-50.5 -72.5t-23.5 -66.5l14 -2q35 -2 59.5 -32t24.5 -69q0 -33 -16 -56t-39.5 -36.5t-50.5 -13.5q-63 0 -88 47t-25 111zM369 1096q0 57 25.5 118.5t68.5 114.5t90 88l55 -80q-18 -16 -45.5 -50 t-49 -71.5t-24.5 -66.5l17 -2q35 -2 58.5 -32t23.5 -71q0 -33 -16.5 -56t-40 -36.5t-48.5 -13.5q-63 0 -88.5 47t-25.5 111z" />
<glyph unicode="&#x201d;" horiz-adv-x="712" d="M55 1012q18 18 47 52t51.5 72t22.5 66h-10q-37 0 -62.5 32t-25.5 73q0 33 16.5 56t41 36.5t48.5 13.5q66 0 90.5 -47t24.5 -113q0 -57 -25.5 -117.5t-67.5 -112.5t-91 -89zM369 1012q20 18 48.5 52t51.5 72t23 66h-15q-33 4 -59.5 35t-26.5 70q0 33 16.5 56t41 36.5 t49.5 13.5q66 0 89 -47t23 -113q0 -55 -25.5 -115.5t-66.5 -113.5t-90 -90z" />
<glyph unicode="&#x201e;" horiz-adv-x="747" d="M80 125q0 37 16.5 65.5t43 46t59.5 17.5q63 0 96 -48t33 -132q0 -63 -26 -130t-68 -124.5t-91 -98.5l-59 86q16 18 42 52.5t48.5 72t28.5 68.5h-4q-47 0 -83 35t-36 90zM420 125q0 37 16.5 65.5t43 46t59.5 17.5q63 0 96 -48t33 -132q0 -63 -26 -130t-68 -124.5 t-91 -98.5l-59 86q16 18 42 52.5t48.5 72t28.5 68.5h-4q-47 0 -83 35t-36 90z" />
<glyph unicode="&#x2022;" horiz-adv-x="614" d="M74 659q0 66 31.5 118t85 84t116.5 32q66 0 118 -32t84 -84t32 -118q0 -63 -32 -116.5t-84 -85t-118 -31.5q-63 0 -116.5 31.5t-85 85t-31.5 116.5z" />
<glyph unicode="&#x2026;" horiz-adv-x="1366" d="M154 94q0 49 34.5 83t83.5 34q51 0 86 -33t35 -82t-37 -82.5t-84 -33.5q-45 0 -81.5 34.5t-36.5 79.5zM563 94q0 49 35 83t84 34q51 0 86 -33t35 -82t-37 -82.5t-84 -33.5q-45 0 -82 34.5t-37 79.5zM973 94q0 49 34.5 83t84.5 34q51 0 85.5 -33t34.5 -82t-36.5 -82.5 t-83.5 -33.5q-45 0 -82 34.5t-37 79.5z" />
<glyph unicode="&#x202f;" horiz-adv-x="380" />
<glyph unicode="&#x2039;" horiz-adv-x="802" d="M141 383v145l521 328v-156l-431 -270v53l431 -274v-154z" />
<glyph unicode="&#x203a;" horiz-adv-x="802" d="M141 55v154l430 274v-53l-430 270v156l521 -328v-145z" />
<glyph unicode="&#x205f;" horiz-adv-x="476" />
<glyph unicode="&#x20ac;" horiz-adv-x="1734" d="M72 504l41 117h850l-41 -117h-850zM72 772l41 117h850l-41 -117h-850zM313 694q0 143 51.5 272.5t145.5 229.5t221 157.5t277 57.5q145 0 272 -55.5t223 -154.5t148 -232h-158q-82 152 -215 223.5t-291 71.5q-86 0 -178 -38t-173 -112t-130 -179.5t-49 -240.5 q0 -117 43 -220t118.5 -181t175 -122t214.5 -44q160 0 288.5 84t198.5 215h158q-51 -133 -148.5 -233.5t-225.5 -156.5t-271 -56q-145 0 -271.5 56t-221.5 155.5t-148.5 228.5t-53.5 274z" />
<glyph unicode="&#x2122;" horiz-adv-x="1595" d="M49 1294v99h543v-99h-215v-602h-115v602h-213zM608 692l137 701h156l176 -572l176 572h156l137 -701h-131l-104 588l-172 -588h-123l-174 588l-103 -588h-131z" />
<glyph unicode="&#x25fc;" horiz-adv-x="901" d="M0 0v901h901v-901h-901z" />
</font>
</defs>
</svg>
