<?xml version="1.0" encoding="UTF-8" standalone="no"?>
<!-- Created with Inkscape (http://www.inkscape.org/) -->

<svg
   xmlns:dc="http://purl.org/dc/elements/1.1/"
   xmlns:cc="http://creativecommons.org/ns#"
   xmlns:rdf="http://www.w3.org/1999/02/22-rdf-syntax-ns#"
   xmlns:svg="http://www.w3.org/2000/svg"
   xmlns="http://www.w3.org/2000/svg"
   xmlns:sodipodi="http://sodipodi.sourceforge.net/DTD/sodipodi-0.dtd"
   xmlns:inkscape="http://www.inkscape.org/namespaces/inkscape"
   width="48"
   height="48"
   viewBox="0 0 48 48"
   id="svg2"
   version="1.1"
   inkscape:version="0.92.2 2405546, 2018-03-11"
   sodipodi:docname="btn_rate.svg">
  <defs
     id="defs4" />
  <sodipodi:namedview
     id="base"
     pagecolor="#ffffff"
     bordercolor="#666666"
     borderopacity="1.0"
     inkscape:pageopacity="0.0"
     inkscape:pageshadow="2"
     inkscape:zoom="11.2"
     inkscape:cx="19.542845"
     inkscape:cy="22.120059"
     inkscape:document-units="px"
     inkscape:current-layer="g4161"
     showgrid="false"
     units="px"
     inkscape:window-width="1920"
     inkscape:window-height="1055"
     inkscape:window-x="0"
     inkscape:window-y="0"
     inkscape:window-maximized="1" />
  <metadata
     id="metadata7">
    <rdf:RDF>
      <cc:Work
         rdf:about="">
        <dc:format>image/svg+xml</dc:format>
        <dc:type
           rdf:resource="http://purl.org/dc/dcmitype/StillImage" />
        <dc:title />
      </cc:Work>
    </rdf:RDF>
  </metadata>
  <g
     inkscape:label="Capa 1"
     inkscape:groupmode="layer"
     id="layer1"
     transform="translate(0,-1004.3622)">
    <g
       id="g4161"
       style="fill:#ffffff;stroke:#000000;stroke-opacity:1;fill-opacity:1">
      <path
         style="fill:#ffffff;fill-opacity:1;stroke:#000000;stroke-width:1;stroke-linecap:round;stroke-linejoin:round;stroke-miterlimit:4;stroke-dasharray:none;stroke-opacity:1"
         inkscape:transform-center-y="-2.1551842"
         d="m 24.000001,1007.5814 c 1.523094,0 5.508484,12.7629 6.740694,13.6582 1.232209,0.8952 14.601989,0.7416 15.072651,2.1901 0.470662,1.4486 -10.436011,9.1829 -10.906673,10.6314 -0.470662,1.4486 3.806925,14.1165 2.574716,15.0118 -1.23221,0.8952 -11.958294,-7.0876 -13.481389,-7.0876 -1.523095,0 -12.24918,7.9828 -13.48139,7.0876 -1.2322091,-0.8953 3.045379,-13.5632 2.574717,-15.0118 -0.470662,-1.4485 -11.3773349,-9.1828 -10.9066728,-10.6314 0.4706621,-1.4485 13.8404418,-1.2949 15.0726508,-2.1901 1.23221,-0.8953 5.217601,-13.6582 6.740696,-13.6582 z"
         id="path4304" />
    </g>
  </g>
</svg>
