<?xml version="1.0" encoding="UTF-8" standalone="no"?>
<!-- Created with Inkscape (http://www.inkscape.org/) -->

<svg
   xmlns:dc="http://purl.org/dc/elements/1.1/"
   xmlns:cc="http://creativecommons.org/ns#"
   xmlns:rdf="http://www.w3.org/1999/02/22-rdf-syntax-ns#"
   xmlns:svg="http://www.w3.org/2000/svg"
   xmlns="http://www.w3.org/2000/svg"
   xmlns:sodipodi="http://sodipodi.sourceforge.net/DTD/sodipodi-0.dtd"
   xmlns:inkscape="http://www.inkscape.org/namespaces/inkscape"
   width="48"
   height="48"
   viewBox="0 0 48 48"
   id="svg2"
   version="1.1"
   inkscape:version="0.92.2 2405546, 2018-03-11"
   sodipodi:docname="btn_twitter.svg">
  <defs
     id="defs4" />
  <sodipodi:namedview
     id="base"
     pagecolor="#ffffff"
     bordercolor="#666666"
     borderopacity="1.0"
     inkscape:pageopacity="0.0"
     inkscape:pageshadow="2"
     inkscape:zoom="11.2"
     inkscape:cx="3.288855"
     inkscape:cy="15.296901"
     inkscape:document-units="px"
     inkscape:current-layer="g4161"
     showgrid="false"
     units="px"
     inkscape:window-width="1920"
     inkscape:window-height="1055"
     inkscape:window-x="0"
     inkscape:window-y="0"
     inkscape:window-maximized="1" />
  <metadata
     id="metadata7">
    <rdf:RDF>
      <cc:Work
         rdf:about="">
        <dc:format>image/svg+xml</dc:format>
        <dc:type
           rdf:resource="http://purl.org/dc/dcmitype/StillImage" />
        <dc:title></dc:title>
      </cc:Work>
    </rdf:RDF>
  </metadata>
  <g
     inkscape:label="Capa 1"
     inkscape:groupmode="layer"
     id="layer1"
     transform="translate(0,-1004.3622)">
    <g
       id="g4161"
       style="fill:#ffffff;stroke:#000000;stroke-opacity:1;fill-opacity:1">
      <path
         style="fill:#ffffff;fill-opacity:1;stroke-width:1;stroke-linecap:round;stroke-linejoin:round;stroke-miterlimit:4;stroke-dasharray:none"
         d="m 12.52958,1045.7572 c -2.084483,-0.2766 -4.3606847,-0.8953 -6.2474327,-1.6979 -1.0427333,-0.4437 -3.2485488,-1.561 -3.5541348,-1.8003 l -0.2112406,-0.1654 h 0.8449627 c 2.967977,-0.013 4.7461353,-0.2653 6.8636104,-0.9711 1.176478,-0.3921 3.02885,-1.307 4.205402,-2.077 1.050044,-0.6872 1.052153,-0.6658 -0.0824,-0.8381 -2.916416,-0.4431 -5.4807518,-2.3501 -6.7611626,-5.028 -0.1555419,-0.3253 -0.2953624,-0.6802 -0.3107122,-0.7887 l -0.027909,-0.1972 1.448782,0.01 c 1.3631318,0.01 2.2806738,-0.094 2.1855598,-0.2482 -0.02153,-0.035 -0.163646,-0.084 -0.315811,-0.1097 -0.507815,-0.086 -1.7850833,-0.6796 -2.5136593,-1.1694 -2.2708424,-1.5267 -3.7598411,-4.0315 -3.9426635,-6.6324 -0.036146,-0.5141 -0.025762,-0.7933 0.029519,-0.7933 0.046904,0 0.3467608,0.1186 0.6663475,0.2635 0.6442194,0.2922 1.832539,0.6133 2.6109176,0.7056 l 0.5069777,0.06 -0.8190475,-0.7707 c -1.6274899,-1.5316 -2.4564453,-3.06 -2.8209234,-5.2013 -0.281887,-1.6559 -0.016128,-3.6594 0.6874118,-5.1822 l 0.295226,-0.639 0.5259519,0.5066 c 2.3354834,2.2491 2.9843829,2.852 3.6112453,3.3547 2.4921859,1.9985 5.9196899,3.6983 9.1476879,4.5364 1.766415,0.4587 4.898797,0.9317 5.00732,0.7561 0.01889,-0.031 -0.0038,-0.3909 -0.05034,-0.8007 -0.130261,-1.1464 0.02671,-2.9109 0.342904,-3.8549 0.764563,-2.282 2.324814,-4.1083 4.439253,-5.1961 1.656461,-0.8524 3.326096,-1.1247 5.342895,-0.8719 1.363463,0.171 2.886367,0.805 3.948612,1.6438 1.31747,1.0404 1.230089,0.991 1.647677,0.9315 0.631206,-0.09 2.524426,-0.7559 3.827001,-1.3461 0.674706,-0.3056 1.249359,-0.5557 1.277005,-0.5557 0.02764,0 0.05027,0.05 0.05027,0.1095 0,0.1629 -0.716889,1.5256 -1.097293,2.0856 -0.357343,0.5262 -1.521564,1.7529 -2.071318,2.1825 l -0.337985,0.2641 h 0.297857 c 0.411356,0 2.120683,-0.4246 3.314359,-0.8307 0.56776,-0.1931 0.992831,-0.2984 0.992831,-0.2455 0,0.3451 -2.499922,3.0768 -3.577993,3.9097 -0.610861,0.4719 -0.646821,0.5563 -0.646821,1.5191 0,1.6923 -0.305898,4.1749 -0.725618,5.8891 -1.106776,4.5204 -3.247334,8.5418 -6.237679,11.7189 -4.091324,4.3469 -8.990353,6.8412 -14.876467,7.5744 -1.325187,0.1651 -5.618665,0.1594 -6.888969,-0.01 z"
         id="path4230"
         inkscape:connector-curvature="0" />
    </g>
  </g>
</svg>
